<?xml version="1.0" encoding="utf-8"?>
<!-- Generator: Adobe Illustrator 24.0.0, SVG Export Plug-In . SVG Version: 6.00 Build 0)  -->
<svg version="1.1" id="Layer_1" xmlns="http://www.w3.org/2000/svg" xmlns:xlink="http://www.w3.org/1999/xlink" x="0px" y="0px"
	 width="225px" height="200px" viewBox="0 0 225 200" enable-background="new 0 0 225 200" xml:space="preserve">
<g opacity="0.15">
	<circle fill="none" cx="165.8" cy="121.6" r="39.6"/>
	<g enable-background="new    ">
		<path fill="#6A47AF" d="M128.7,145.5l2.3-1.5c0.2-0.1,0.3-0.2,0.3-0.4c0-0.1,0-0.3-0.2-0.5l-0.4-0.6l1-0.7l0.5,0.8
			c0.7,1,0.5,1.9-0.5,2.5l-2.3,1.5l0.4,0.6l-1,0.7l-0.4-0.6l-1.2,0.8l-0.8-1.2l1.2-0.8l-0.7-1.1l1-0.7L128.7,145.5z"/>
	</g>
	<g enable-background="new    ">
		<path fill="#6A47AF" d="M125.4,141.8c-0.3-0.2-0.5-0.5-0.7-0.8l1.4-0.7l0.2,0.3c0.2,0.4,0.5,0.7,0.8,0.8c0.3,0.1,0.7,0,1.2-0.2
			l2.6-1.3l0.7,1.3l-5.1,2.7l-0.7-1.3l0.8-0.4C126,142.1,125.7,142,125.4,141.8z"/>
	</g>
	<g enable-background="new    ">
		<path fill="#6A47AF" d="M123.3,140c-0.1,0.2-0.2,0.4-0.5,0.5s-0.4,0.1-0.7,0c-0.2-0.1-0.4-0.3-0.5-0.5c-0.1-0.2-0.1-0.5,0-0.7
			c0.1-0.2,0.2-0.4,0.5-0.5c0.2-0.1,0.4-0.1,0.7,0s0.4,0.3,0.5,0.5C123.4,139.6,123.4,139.8,123.3,140z M123.6,138.4l5.3-2.2
			l0.6,1.4l-5.3,2.2L123.6,138.4z"/>
	</g>
	<g enable-background="new    ">
		<path fill="#6A47AF" d="M128.1,134.2c-0.1,0.4-0.2,0.8-0.4,1.1c-0.2,0.3-0.5,0.5-0.8,0.6l-0.4-1.4c0.2-0.1,0.4-0.2,0.4-0.5
			s0.1-0.5,0-0.7c-0.1-0.3-0.2-0.5-0.3-0.6c-0.2-0.1-0.3-0.2-0.5-0.1c-0.2,0.1-0.3,0.2-0.3,0.4c0,0.2,0,0.5,0,1c0,0.4,0,0.8,0,1.1
			c0,0.3-0.1,0.6-0.3,0.8c-0.2,0.3-0.4,0.4-0.8,0.6c-0.3,0.1-0.6,0.1-0.9,0s-0.6-0.3-0.8-0.6s-0.4-0.7-0.6-1.1
			c-0.2-0.7-0.2-1.2,0-1.7c0.2-0.5,0.6-0.8,1.1-1.1l0.4,1.3c-0.2,0.1-0.4,0.2-0.4,0.4c-0.1,0.2-0.1,0.4,0,0.7
			c0.1,0.3,0.2,0.4,0.3,0.5c0.1,0.1,0.3,0.1,0.5,0.1c0.2-0.1,0.3-0.2,0.3-0.4c0-0.2,0.1-0.5,0-1c0-0.4,0-0.8,0-1.1
			c0-0.3,0.1-0.6,0.3-0.8s0.4-0.4,0.8-0.6c0.3-0.1,0.6-0.1,0.9,0s0.6,0.3,0.8,0.6c0.2,0.3,0.4,0.7,0.6,1.1
			C128.1,133.3,128.1,133.8,128.1,134.2z"/>
	</g>
	<g enable-background="new    ">
		<path fill="#6A47AF" d="M120.9,123c0.4-0.5,1-0.7,1.8-0.8l3.4-0.3l0.1,1.5l-3.2,0.3c-0.5,0-0.8,0.2-1,0.4c-0.2,0.2-0.3,0.6-0.3,1
			c0,0.4,0.2,0.7,0.4,0.9c0.3,0.2,0.6,0.3,1.1,0.3l3.2-0.3l0.1,1.5l-5.8,0.5l-0.1-1.5l0.7-0.1c-0.3-0.2-0.5-0.4-0.6-0.7
			c-0.2-0.3-0.3-0.6-0.3-1C120.4,124,120.5,123.4,120.9,123z"/>
	</g>
	<g enable-background="new    ">
		<path fill="#6A47AF" d="M120.8,116.9c0.2-0.3,0.4-0.5,0.7-0.7l-0.8-0.1l0.1-1.5l5.8,0.5c0.5,0,1,0.2,1.4,0.5
			c0.4,0.3,0.7,0.6,0.9,1.1c0.2,0.5,0.3,1,0.2,1.6c-0.1,0.8-0.3,1.5-0.8,2c-0.4,0.5-1,0.7-1.6,0.7l0.1-1.4c0.3-0.1,0.5-0.2,0.7-0.4
			c0.2-0.2,0.3-0.5,0.3-0.9c0-0.4-0.1-0.8-0.3-1.1c-0.2-0.3-0.6-0.5-1.1-0.5l-0.9-0.1c0.3,0.2,0.5,0.5,0.6,0.8
			c0.2,0.3,0.2,0.7,0.2,1.2c0,0.5-0.2,0.9-0.5,1.3c-0.3,0.4-0.7,0.7-1.1,0.9c-0.5,0.2-1,0.3-1.6,0.2c-0.6-0.1-1.1-0.2-1.5-0.5
			c-0.4-0.3-0.7-0.6-1-1s-0.3-0.9-0.2-1.4C120.5,117.6,120.6,117.2,120.8,116.9z M122.7,116.5c-0.3,0.1-0.5,0.3-0.6,0.5
			c-0.2,0.2-0.2,0.5-0.3,0.7c0,0.3,0,0.5,0.1,0.8c0.1,0.2,0.3,0.4,0.5,0.6c0.2,0.2,0.5,0.3,0.9,0.3s0.7,0,0.9-0.1
			c0.3-0.1,0.5-0.3,0.6-0.5c0.2-0.2,0.3-0.5,0.3-0.7c0-0.3,0-0.5-0.1-0.8c-0.1-0.2-0.3-0.5-0.5-0.6c-0.2-0.2-0.5-0.3-0.9-0.3
			C123.3,116.3,123,116.4,122.7,116.5z"/>
	</g>
	<g enable-background="new    ">
		<path fill="#6A47AF" d="M122.7,107.3l5.6,1.5l-0.4,1.4l-0.7-0.2c0.2,0.2,0.3,0.5,0.4,0.9c0.1,0.3,0,0.7,0,1
			c-0.1,0.4-0.3,0.8-0.6,1.1c-0.3,0.3-0.6,0.5-1,0.6c-0.4,0.1-0.9,0.1-1.4-0.1l-3.3-0.9l0.4-1.4l3.1,0.8c0.4,0.1,0.8,0.1,1.1-0.1
			c0.3-0.2,0.5-0.4,0.6-0.8c0.1-0.4,0.1-0.7-0.1-1c-0.2-0.3-0.5-0.5-0.9-0.6l-3.1-0.8L122.7,107.3z"/>
	</g>
	<g enable-background="new    ">
		<path fill="#6A47AF" d="M125.6,100.3l6.3,6.8l-0.6,1.4l-2.1-2.3l-6.1-0.2l0.7-1.5l4.3,0.3l-3.1-3L125.6,100.3z"/>
	</g>
	<g enable-background="new    ">
		<path fill="#6A47AF" d="M132,96.4l-2.3,3.6c0.4,0.2,0.7,0.3,1.1,0.2c0.3-0.1,0.6-0.3,0.8-0.6c0.3-0.5,0.3-0.9,0-1.4l0.9-1.3
			c0.4,0.4,0.6,1,0.6,1.6c0,0.6-0.1,1.2-0.5,1.8c-0.3,0.5-0.7,0.8-1.1,1.1c-0.4,0.2-0.9,0.3-1.4,0.3c-0.5,0-1-0.2-1.5-0.5
			c-0.5-0.3-0.9-0.7-1.1-1.2c-0.2-0.5-0.4-0.9-0.3-1.4c0-0.5,0.2-1,0.5-1.5c0.3-0.5,0.7-0.8,1.1-1.1c0.4-0.2,0.9-0.3,1.4-0.3
			s1,0.2,1.5,0.5C131.8,96.2,131.9,96.3,132,96.4z M130.4,97.1c-0.3-0.2-0.6-0.2-1-0.1c-0.3,0.1-0.6,0.3-0.8,0.6
			c-0.2,0.3-0.3,0.6-0.2,0.9c0.1,0.3,0.2,0.6,0.5,0.9L130.4,97.1z"/>
	</g>
	<g enable-background="new    ">
		<path fill="#6A47AF" d="M134,90c0.6,0,1.2,0.2,1.8,0.7l2.5,2.3l-1,1.1l-2.4-2.1c-0.3-0.3-0.7-0.5-1-0.5c-0.3,0-0.6,0.2-0.9,0.5
			c-0.3,0.3-0.4,0.6-0.4,1c0,0.3,0.2,0.7,0.6,1l2.4,2.1l-1,1.1l-4.3-3.9l1-1.1l0.5,0.5c-0.1-0.3,0-0.6,0.1-0.9
			c0.1-0.3,0.3-0.6,0.5-0.9C132.8,90.3,133.4,90,134,90z"/>
	</g>
	<g enable-background="new    ">
		<path fill="#6A47AF" d="M141.8,84.6l1.5,2.3c0.1,0.2,0.2,0.3,0.4,0.3c0.1,0,0.3,0,0.5-0.2l0.6-0.4l0.7,1l-0.8,0.5
			c-1,0.7-1.9,0.5-2.5-0.5l-1.5-2.3l-0.6,0.4l-0.7-1l0.6-0.4l-0.8-1.2l1.2-0.8l0.8,1.2l1.1-0.7l0.7,1L141.8,84.6z"/>
	</g>
	<g enable-background="new    ">
		<path fill="#6A47AF" d="M145.5,81.2c0.2-0.3,0.5-0.5,0.8-0.7l0.7,1.4l-0.3,0.2c-0.4,0.2-0.7,0.5-0.8,0.8c-0.1,0.3,0,0.7,0.2,1.2
			l1.3,2.6l-1.3,0.7l-2.7-5.1l1.3-0.7l0.4,0.8C145.2,81.8,145.3,81.5,145.5,81.2z"/>
	</g>
	<g enable-background="new    ">
		<path fill="#6A47AF" d="M147.4,79.2c-0.2-0.1-0.4-0.2-0.5-0.5c-0.1-0.2-0.1-0.4,0-0.7s0.3-0.4,0.5-0.5s0.5-0.1,0.7,0
			c0.2,0.1,0.4,0.2,0.5,0.5c0.1,0.2,0.1,0.4,0,0.7c-0.1,0.2-0.3,0.4-0.5,0.5C147.8,79.2,147.6,79.2,147.4,79.2z M149,79.5l2.2,5.3
			l-1.3,0.6l-2.2-5.3L149,79.5z"/>
	</g>
	<g enable-background="new    ">
		<path fill="#6A47AF" d="M153.2,83.9c-0.4-0.1-0.8-0.2-1.1-0.4c-0.3-0.2-0.5-0.5-0.6-0.8l1.4-0.4c0.1,0.2,0.3,0.4,0.5,0.4
			c0.2,0.1,0.5,0.1,0.7,0c0.3-0.1,0.5-0.2,0.6-0.3c0.1-0.2,0.2-0.3,0.1-0.5c-0.1-0.2-0.2-0.3-0.4-0.3c-0.2,0-0.5,0-1,0
			c-0.4,0-0.8,0-1.1,0c-0.3,0-0.6-0.1-0.8-0.3c-0.3-0.2-0.4-0.4-0.6-0.8c-0.1-0.3-0.1-0.6,0-0.9c0.1-0.3,0.3-0.6,0.6-0.8
			c0.3-0.2,0.7-0.4,1.1-0.6c0.7-0.2,1.2-0.2,1.7,0c0.5,0.2,0.8,0.6,1.1,1.1l-1.3,0.4c-0.1-0.2-0.2-0.4-0.4-0.4
			c-0.2-0.1-0.4-0.1-0.7,0c-0.3,0.1-0.4,0.2-0.5,0.3c-0.1,0.1-0.1,0.3-0.1,0.5c0.1,0.2,0.2,0.3,0.4,0.3s0.5,0.1,1,0
			c0.4,0,0.8,0,1.1,0c0.3,0,0.6,0.1,0.8,0.3c0.3,0.2,0.4,0.4,0.6,0.8c0.1,0.3,0.1,0.6,0,0.9c-0.1,0.3-0.3,0.6-0.6,0.8
			c-0.3,0.2-0.7,0.4-1.1,0.6C154,84,153.6,84,153.2,83.9z"/>
	</g>
	<g enable-background="new    ">
		<path fill="#6A47AF" d="M164.3,76.7c0.5,0.4,0.7,1,0.8,1.8l0.3,3.4l-1.5,0.1l-0.3-3.2c0-0.5-0.2-0.8-0.4-1c-0.3-0.2-0.6-0.3-1-0.3
			c-0.4,0-0.7,0.2-0.9,0.4c-0.2,0.3-0.3,0.6-0.3,1.1l0.3,3.2l-1.5,0.1l-0.5-5.8l1.5-0.1l0.1,0.7c0.2-0.3,0.4-0.5,0.7-0.6
			c0.3-0.2,0.6-0.3,1-0.3C163.3,76.2,163.8,76.3,164.3,76.7z"/>
	</g>
	<g enable-background="new    ">
		<path fill="#6A47AF" d="M170.4,76.7c0.3,0.2,0.5,0.4,0.7,0.7l0.1-0.8l1.5,0.1l-0.5,5.8c0,0.5-0.2,1-0.4,1.4
			c-0.3,0.4-0.6,0.7-1.1,0.9c-0.5,0.2-1,0.3-1.6,0.2c-0.8-0.1-1.5-0.3-2-0.8c-0.5-0.4-0.7-1-0.8-1.6l1.4,0.1
			c0.1,0.3,0.2,0.5,0.4,0.7c0.2,0.2,0.5,0.3,0.9,0.3c0.4,0,0.8-0.1,1.1-0.3c0.3-0.2,0.5-0.6,0.5-1.1l0.1-0.9
			c-0.2,0.3-0.5,0.5-0.8,0.6c-0.3,0.2-0.7,0.2-1.2,0.2c-0.5,0-0.9-0.2-1.3-0.5c-0.4-0.3-0.7-0.7-0.9-1.1c-0.2-0.5-0.3-1-0.2-1.6
			c0.1-0.6,0.2-1.1,0.5-1.5s0.6-0.7,1-1c0.4-0.2,0.9-0.3,1.4-0.2C169.7,76.3,170,76.5,170.4,76.7z M170.8,78.5
			c-0.1-0.3-0.3-0.5-0.5-0.6c-0.2-0.2-0.5-0.2-0.7-0.3c-0.3,0-0.5,0-0.8,0.1c-0.2,0.1-0.4,0.3-0.6,0.5s-0.3,0.5-0.3,0.9
			c0,0.3,0,0.7,0.1,0.9c0.1,0.3,0.3,0.5,0.5,0.6c0.2,0.2,0.5,0.3,0.7,0.3c0.3,0,0.5,0,0.8-0.1c0.2-0.1,0.5-0.3,0.6-0.5
			c0.2-0.2,0.3-0.5,0.3-0.9C170.9,79.1,170.9,78.8,170.8,78.5z"/>
	</g>
	<g enable-background="new    ">
		<path fill="#6A47AF" d="M180,78.4l-1.5,5.6l-1.4-0.4l0.2-0.7c-0.2,0.2-0.5,0.3-0.9,0.4c-0.3,0.1-0.7,0-1,0
			c-0.4-0.1-0.8-0.3-1.1-0.6c-0.3-0.3-0.5-0.6-0.6-1c-0.1-0.4-0.1-0.9,0.1-1.4l0.9-3.3l1.4,0.4l-0.8,3.1c-0.1,0.4-0.1,0.8,0.1,1.1
			s0.4,0.5,0.8,0.6c0.4,0.1,0.7,0.1,1-0.1c0.3-0.2,0.5-0.5,0.6-0.9l0.8-3.1L180,78.4z"/>
	</g>
	<g enable-background="new    ">
		<path fill="#6A47AF" d="M187,81.4l-6.7,6.3l-1.4-0.6l2.3-2.1l0.2-6.1l1.5,0.7l-0.3,4.3l3-3.1L187,81.4z"/>
	</g>
	<g enable-background="new    ">
		<path fill="#6A47AF" d="M190.9,87.8l-3.6-2.3c-0.2,0.4-0.3,0.7-0.2,1.1c0.1,0.3,0.3,0.6,0.6,0.8c0.5,0.3,0.9,0.3,1.4,0l1.3,0.9
			c-0.4,0.4-1,0.6-1.6,0.6c-0.6,0-1.2-0.1-1.8-0.5c-0.5-0.3-0.8-0.7-1.1-1.1c-0.2-0.4-0.3-0.9-0.3-1.4c0-0.5,0.2-1,0.5-1.5
			c0.3-0.5,0.7-0.9,1.2-1.1c0.5-0.2,0.9-0.4,1.4-0.3c0.5,0,1,0.2,1.5,0.5c0.5,0.3,0.8,0.7,1.1,1.1c0.2,0.4,0.3,0.9,0.3,1.4
			s-0.2,1-0.5,1.5C191.1,87.5,191,87.7,190.9,87.8z M190.2,86.2c0.2-0.3,0.2-0.6,0.1-1c-0.1-0.3-0.3-0.6-0.6-0.8
			c-0.3-0.2-0.6-0.3-0.9-0.2c-0.3,0.1-0.6,0.2-0.9,0.5L190.2,86.2z"/>
	</g>
	<g enable-background="new    ">
		<path fill="#6A47AF" d="M197.4,89.7c0,0.6-0.2,1.2-0.7,1.8l-2.3,2.5l-1.1-1l2.1-2.4c0.3-0.3,0.5-0.7,0.5-1c0-0.3-0.2-0.6-0.5-0.9
			c-0.3-0.3-0.6-0.4-1-0.4c-0.3,0-0.7,0.2-1,0.6l-2.1,2.4l-1.1-1l3.9-4.3l1.1,1l-0.5,0.5c0.3-0.1,0.6,0,0.9,0.1
			c0.3,0.1,0.6,0.3,0.9,0.5C197.1,88.6,197.4,89.1,197.4,89.7z"/>
	</g>
	<g enable-background="new    ">
		<path fill="#6A47AF" d="M202.8,97.6l-2.3,1.5c-0.2,0.1-0.3,0.2-0.3,0.4c0,0.1,0,0.3,0.2,0.5l0.4,0.6l-1,0.7l-0.5-0.8
			c-0.7-1-0.5-1.9,0.5-2.5l2.3-1.5l-0.4-0.6l1-0.7l0.4,0.6l1.2-0.8l0.8,1.2l-1.2,0.8l0.7,1.1l-1,0.7L202.8,97.6z"/>
	</g>
	<g enable-background="new    ">
		<path fill="#6A47AF" d="M206.2,101.2c0.3,0.2,0.5,0.5,0.7,0.8l-1.4,0.7l-0.2-0.3c-0.2-0.4-0.5-0.7-0.8-0.8c-0.3-0.1-0.7,0-1.2,0.2
			l-2.6,1.3l-0.7-1.3l5.1-2.7l0.7,1.3l-0.8,0.4C205.6,101,205.9,101.1,206.2,101.2z"/>
	</g>
	<g enable-background="new    ">
		<path fill="#6A47AF" d="M207.9,104.6l-5.3,2.2l-0.6-1.3l5.3-2.2L207.9,104.6z M208.2,103c0.1-0.2,0.2-0.4,0.5-0.5
			c0.2-0.1,0.4-0.1,0.7,0c0.2,0.1,0.4,0.3,0.5,0.5c0.1,0.2,0.1,0.5,0,0.7c-0.1,0.2-0.2,0.4-0.5,0.5c-0.2,0.1-0.4,0.1-0.7,0
			c-0.2-0.1-0.4-0.3-0.5-0.5C208.1,103.4,208.1,103.2,208.2,103z"/>
	</g>
	<g enable-background="new    ">
		<path fill="#6A47AF" d="M203.4,108.9c0.1-0.4,0.2-0.8,0.4-1.1c0.2-0.3,0.5-0.5,0.8-0.6l0.4,1.4c-0.2,0.1-0.4,0.3-0.4,0.5
			c-0.1,0.2-0.1,0.5,0,0.8c0.1,0.3,0.2,0.5,0.3,0.6s0.3,0.2,0.5,0.1c0.2-0.1,0.3-0.2,0.3-0.4s0-0.5,0-1c0-0.4,0-0.8,0-1.1
			c0-0.3,0.1-0.6,0.3-0.8s0.4-0.4,0.8-0.6c0.3-0.1,0.6-0.1,0.9,0c0.3,0.1,0.6,0.3,0.8,0.6s0.4,0.7,0.6,1.1c0.2,0.7,0.2,1.2,0,1.7
			c-0.2,0.5-0.6,0.8-1.1,1.1l-0.4-1.3c0.2-0.1,0.4-0.2,0.4-0.4c0.1-0.2,0.1-0.4,0-0.7c-0.1-0.3-0.2-0.4-0.3-0.5
			c-0.1-0.1-0.3-0.1-0.5-0.1c-0.2,0.1-0.3,0.2-0.3,0.4c0,0.2,0,0.5,0,1c0,0.4,0,0.8,0,1.1c0,0.3-0.1,0.6-0.3,0.8
			c-0.2,0.3-0.4,0.4-0.8,0.6c-0.3,0.1-0.6,0.1-0.9,0s-0.6-0.3-0.8-0.6c-0.2-0.3-0.4-0.6-0.6-1.1
			C203.4,109.8,203.4,109.3,203.4,108.9z"/>
	</g>
	<g enable-background="new    ">
		<path fill="#6A47AF" d="M210.6,120.1c-0.4,0.5-1,0.7-1.8,0.8l-3.4,0.3l-0.1-1.5l3.2-0.3c0.5,0,0.8-0.2,1-0.4
			c0.2-0.3,0.3-0.6,0.3-1c0-0.4-0.2-0.7-0.4-0.9c-0.3-0.2-0.6-0.3-1.1-0.3l-3.2,0.3l-0.1-1.5l5.8-0.5l0.1,1.5l-0.7,0.1
			c0.3,0.2,0.5,0.4,0.6,0.7c0.2,0.3,0.3,0.6,0.3,1C211.2,119,211,119.6,210.6,120.1z"/>
	</g>
	<g enable-background="new    ">
		<path fill="#6A47AF" d="M210.8,126.1c-0.2,0.3-0.4,0.5-0.7,0.7l0.8,0.1l-0.1,1.5l-5.8-0.5c-0.5,0-1-0.2-1.4-0.4
			c-0.4-0.3-0.7-0.6-0.9-1.1c-0.2-0.5-0.3-1-0.2-1.6c0.1-0.8,0.3-1.5,0.7-2c0.4-0.5,1-0.7,1.6-0.8l-0.1,1.4
			c-0.3,0.1-0.5,0.2-0.7,0.4c-0.2,0.2-0.3,0.5-0.3,0.9c0,0.4,0.1,0.8,0.3,1.1c0.2,0.3,0.6,0.5,1.1,0.5l0.9,0.1
			c-0.3-0.2-0.5-0.5-0.6-0.8c-0.2-0.3-0.2-0.7-0.2-1.2c0-0.5,0.2-0.9,0.5-1.3s0.7-0.7,1.1-0.9s1-0.3,1.6-0.2
			c0.6,0.1,1.1,0.2,1.5,0.5c0.4,0.3,0.8,0.6,1,1c0.2,0.4,0.3,0.9,0.2,1.4C211.1,125.4,211,125.7,210.8,126.1z M208.9,126.5
			c0.3-0.1,0.5-0.3,0.6-0.5c0.2-0.2,0.2-0.5,0.3-0.7c0-0.3,0-0.5-0.1-0.8c-0.1-0.2-0.3-0.4-0.5-0.6s-0.5-0.3-0.9-0.3
			c-0.3,0-0.7,0-0.9,0.1c-0.3,0.1-0.5,0.3-0.6,0.5c-0.2,0.2-0.3,0.5-0.3,0.7c0,0.3,0,0.5,0.1,0.8c0.1,0.2,0.3,0.5,0.5,0.6
			c0.2,0.2,0.5,0.3,0.9,0.3C208.4,126.6,208.7,126.6,208.9,126.5z"/>
	</g>
	<g enable-background="new    ">
		<path fill="#6A47AF" d="M209,135.7l-5.6-1.5l0.4-1.4l0.7,0.2c-0.2-0.2-0.3-0.5-0.4-0.9c-0.1-0.3,0-0.7,0-1
			c0.1-0.4,0.3-0.8,0.6-1.1c0.3-0.3,0.6-0.5,1-0.6c0.4-0.1,0.9-0.1,1.4,0.1l3.3,0.9l-0.4,1.4L207,131c-0.4-0.1-0.8-0.1-1.1,0.1
			c-0.3,0.2-0.5,0.4-0.6,0.8c-0.1,0.4-0.1,0.7,0.1,1c0.2,0.3,0.5,0.5,0.9,0.6l3.1,0.8L209,135.7z"/>
	</g>
	<g enable-background="new    ">
		<path fill="#6A47AF" d="M206.1,142.7l-6.3-6.7l0.6-1.4l2.1,2.3l6.1,0.2l-0.7,1.5l-4.3-0.3l3.1,3L206.1,142.7z"/>
	</g>
	<g enable-background="new    ">
		<path fill="#6A47AF" d="M199.7,146.6l2.3-3.6c-0.4-0.2-0.7-0.3-1.1-0.2c-0.3,0.1-0.6,0.3-0.8,0.6c-0.3,0.5-0.3,0.9,0,1.4l-0.8,1.3
			c-0.4-0.4-0.6-1-0.6-1.5c0-0.6,0.1-1.2,0.5-1.8c0.3-0.5,0.7-0.8,1.1-1.1c0.4-0.2,0.9-0.3,1.4-0.3c0.5,0,1,0.2,1.5,0.5
			c0.5,0.3,0.9,0.7,1.1,1.2s0.4,0.9,0.3,1.4s-0.2,1-0.5,1.5c-0.3,0.5-0.7,0.8-1.1,1.1c-0.4,0.2-0.9,0.3-1.4,0.3
			c-0.5,0-1-0.2-1.5-0.5C199.9,146.9,199.8,146.7,199.7,146.6z M201.3,145.9c0.3,0.2,0.6,0.2,1,0.1c0.3-0.1,0.6-0.3,0.8-0.6
			c0.2-0.3,0.3-0.6,0.2-0.9c-0.1-0.3-0.2-0.6-0.5-0.9L201.3,145.9z"/>
	</g>
	<g enable-background="new    ">
		<path fill="#6A47AF" d="M197.7,153.1c-0.6,0-1.2-0.2-1.8-0.7l-2.5-2.3l1-1.1l2.4,2.1c0.3,0.3,0.7,0.5,1,0.5c0.3,0,0.6-0.2,0.9-0.5
			c0.3-0.3,0.4-0.6,0.4-1c0-0.3-0.2-0.7-0.6-1l-2.4-2.1l1-1.1l4.3,3.9l-1,1.1l-0.5-0.5c0.1,0.3,0,0.6-0.1,1
			c-0.1,0.3-0.3,0.6-0.5,0.9C198.9,152.8,198.3,153.1,197.7,153.1z"/>
	</g>
	<g enable-background="new    ">
		<path fill="#6A47AF" d="M189.9,158.6l-1.6-2.3c-0.1-0.2-0.2-0.3-0.4-0.3s-0.3,0-0.5,0.2l-0.6,0.4l-0.7-1l0.8-0.5
			c1-0.7,1.9-0.5,2.5,0.5l1.5,2.3l0.6-0.4l0.7,1l-0.6,0.4l0.8,1.2l-1.2,0.8l-0.8-1.2l-1.1,0.7l-0.7-1L189.9,158.6z"/>
	</g>
	<g enable-background="new    ">
		<path fill="#6A47AF" d="M186.2,161.9c-0.2,0.3-0.5,0.5-0.8,0.7l-0.7-1.4l0.3-0.2c0.4-0.2,0.7-0.5,0.8-0.8c0.1-0.3,0-0.7-0.2-1.2
			l-1.3-2.5l1.3-0.7l2.7,5.1l-1.3,0.7l-0.4-0.8C186.5,161.3,186.4,161.6,186.2,161.9z"/>
	</g>
	<g enable-background="new    ">
		<path fill="#6A47AF" d="M182.8,163.7l-2.3-5.3l1.3-0.6l2.3,5.3L182.8,163.7z M184.4,164c0.2,0.1,0.4,0.2,0.5,0.5
			c0.1,0.2,0.1,0.4,0,0.7c-0.1,0.2-0.3,0.4-0.5,0.5s-0.5,0.1-0.7,0s-0.4-0.2-0.5-0.5c-0.1-0.2-0.1-0.4,0-0.7
			c0.1-0.2,0.3-0.4,0.5-0.5C183.9,163.9,184.2,163.9,184.4,164z"/>
	</g>
	<g enable-background="new    ">
		<path fill="#6A47AF" d="M178.6,159.2c0.4,0.1,0.8,0.2,1.1,0.4c0.3,0.2,0.5,0.5,0.6,0.8l-1.4,0.4c-0.1-0.2-0.3-0.3-0.5-0.4
			c-0.2-0.1-0.5-0.1-0.7,0c-0.3,0.1-0.5,0.2-0.6,0.4s-0.2,0.3-0.1,0.5c0.1,0.2,0.2,0.3,0.4,0.3c0.2,0,0.5,0,1,0c0.4,0,0.8,0,1.1,0
			s0.6,0.1,0.8,0.3c0.3,0.2,0.4,0.4,0.6,0.8c0.1,0.3,0.1,0.6,0,0.9c-0.1,0.3-0.3,0.6-0.6,0.8c-0.3,0.2-0.6,0.4-1.1,0.6
			c-0.7,0.2-1.2,0.2-1.7,0s-0.8-0.6-1.1-1.1l1.3-0.4c0.1,0.2,0.2,0.4,0.4,0.4c0.2,0.1,0.4,0.1,0.7,0c0.3-0.1,0.4-0.2,0.5-0.3
			c0.1-0.1,0.1-0.3,0.1-0.5c-0.1-0.2-0.2-0.3-0.4-0.3c-0.2,0-0.5,0-1,0c-0.4,0-0.8,0-1.1,0c-0.3,0-0.6-0.1-0.8-0.3
			c-0.3-0.2-0.4-0.4-0.6-0.8c-0.1-0.3-0.1-0.6,0-0.9c0.1-0.3,0.3-0.6,0.6-0.8c0.3-0.2,0.6-0.4,1.1-0.6
			C177.7,159.2,178.2,159.1,178.6,159.2z"/>
	</g>
	<g enable-background="new    ">
		<path fill="#6A47AF" d="M167.5,166.4c-0.5-0.4-0.7-1-0.8-1.8l-0.3-3.4l1.5-0.1l0.3,3.2c0,0.5,0.2,0.8,0.4,1c0.3,0.2,0.6,0.3,1,0.3
			c0.4,0,0.7-0.2,0.9-0.5c0.2-0.3,0.3-0.6,0.3-1.1l-0.3-3.2l1.5-0.1l0.5,5.8l-1.5,0.1l-0.1-0.7c-0.2,0.3-0.4,0.5-0.7,0.7
			c-0.3,0.2-0.6,0.3-1,0.3C168.5,167,167.9,166.8,167.5,166.4z"/>
	</g>
	<g enable-background="new    ">
		<path fill="#6A47AF" d="M161.4,166.6c-0.3-0.2-0.5-0.4-0.7-0.7l-0.1,0.8l-1.5-0.1l0.5-5.8c0-0.5,0.2-1,0.4-1.4
			c0.3-0.4,0.6-0.7,1.1-0.9s1-0.3,1.6-0.2c0.8,0.1,1.5,0.3,2,0.7c0.5,0.4,0.7,1,0.8,1.6l-1.4-0.1c-0.1-0.3-0.2-0.5-0.4-0.7
			c-0.2-0.2-0.5-0.3-0.9-0.3c-0.4,0-0.8,0.1-1.1,0.3c-0.3,0.2-0.5,0.6-0.5,1.1l-0.1,0.9c0.2-0.3,0.5-0.5,0.8-0.6
			c0.3-0.2,0.7-0.2,1.2-0.2c0.5,0,0.9,0.2,1.3,0.5c0.4,0.3,0.7,0.7,0.9,1.1c0.2,0.5,0.3,1,0.2,1.6c-0.1,0.6-0.2,1.1-0.5,1.5
			s-0.6,0.8-1,1c-0.4,0.2-0.9,0.3-1.4,0.3C162.1,166.9,161.8,166.8,161.4,166.6z M161,164.7c0.1,0.3,0.3,0.5,0.5,0.6
			s0.5,0.2,0.7,0.3c0.3,0,0.5,0,0.8-0.1c0.2-0.1,0.4-0.3,0.6-0.5c0.2-0.2,0.3-0.5,0.3-0.9c0-0.3,0-0.7-0.1-0.9
			c-0.1-0.3-0.3-0.5-0.5-0.6c-0.2-0.2-0.5-0.2-0.7-0.3c-0.3,0-0.5,0-0.8,0.1c-0.2,0.1-0.5,0.3-0.6,0.5c-0.2,0.2-0.3,0.5-0.3,0.9
			C160.9,164.2,160.9,164.5,161,164.7z"/>
	</g>
	<g enable-background="new    ">
		<path fill="#6A47AF" d="M151.8,164.8l1.5-5.6l1.4,0.4l-0.2,0.7c0.2-0.2,0.5-0.3,0.9-0.4s0.7,0,1,0c0.4,0.1,0.8,0.3,1.1,0.6
			c0.3,0.3,0.5,0.6,0.6,1c0.1,0.4,0.1,0.9,0,1.4l-0.9,3.3l-1.4-0.4l0.8-3.1c0.1-0.4,0.1-0.8-0.1-1.1c-0.2-0.3-0.4-0.5-0.8-0.6
			c-0.4-0.1-0.7-0.1-1,0.1c-0.3,0.2-0.5,0.5-0.6,0.9l-0.8,3.1L151.8,164.8z"/>
	</g>
	<g enable-background="new    ">
		<path fill="#6A47AF" d="M144.7,161.9l6.7-6.4l1.4,0.6l-2.3,2.1l-0.2,6.1l-1.5-0.7l0.3-4.3l-3,3.1L144.7,161.9z"/>
	</g>
	<g enable-background="new    ">
		<path fill="#6A47AF" d="M140.8,155.5l3.6,2.3c0.2-0.4,0.2-0.7,0.2-1.1s-0.3-0.6-0.6-0.8c-0.5-0.3-0.9-0.3-1.4,0l-1.3-0.8
			c0.4-0.4,1-0.6,1.5-0.6c0.6,0,1.2,0.1,1.8,0.5c0.5,0.3,0.8,0.7,1.1,1.1c0.2,0.4,0.3,0.9,0.3,1.4c0,0.5-0.2,1-0.5,1.5
			c-0.3,0.5-0.7,0.9-1.2,1.1c-0.4,0.3-0.9,0.4-1.4,0.3c-0.5,0-1-0.2-1.5-0.5c-0.5-0.3-0.8-0.7-1.1-1.1s-0.3-0.9-0.3-1.4
			s0.2-1,0.5-1.5C140.6,155.8,140.7,155.6,140.8,155.5z M141.5,157.1c-0.2,0.3-0.2,0.6-0.1,1s0.3,0.6,0.6,0.8
			c0.3,0.2,0.6,0.3,0.9,0.2c0.3-0.1,0.6-0.2,0.9-0.5L141.5,157.1z"/>
	</g>
	<g enable-background="new    ">
		<path fill="#6A47AF" d="M134.3,153.6c0-0.6,0.2-1.2,0.7-1.8l2.3-2.5l1.1,1l-2.1,2.4c-0.3,0.3-0.5,0.7-0.5,1c0,0.3,0.2,0.6,0.5,0.9
			c0.3,0.3,0.6,0.4,1,0.4c0.3,0,0.7-0.2,1-0.6l2.1-2.4l1.1,1l-3.9,4.3l-1.1-1l0.5-0.5c-0.3,0.1-0.6,0-0.9-0.1
			c-0.3-0.1-0.6-0.3-0.9-0.5C134.6,154.7,134.3,154.2,134.3,153.6z"/>
	</g>
	<circle fill="none" cx="165.8" cy="121.6" r="70.6"/>
	<g enable-background="new    ">
		<path fill="#6A47AF" d="M99.6,164.2l4.2-2.7c0.3-0.2,0.5-0.4,0.5-0.6c0-0.2-0.1-0.5-0.3-0.8l-0.7-1l1.8-1.2l0.9,1.4
			c1.2,1.8,0.9,3.3-0.9,4.5l-4.2,2.7l0.7,1l-1.8,1.2l-0.7-1l-2.1,1.4l-1.4-2.2l2.1-1.4l-1.3-1.9l1.8-1.2L99.6,164.2z"/>
	</g>
	<g enable-background="new    ">
		<path fill="#6A47AF" d="M93.7,157.6c-0.5-0.3-0.9-0.8-1.3-1.4l2.4-1.3l0.3,0.6c0.4,0.7,0.8,1.2,1.4,1.4c0.5,0.2,1.2,0.1,2.1-0.4
			l4.6-2.4l1.2,2.3l-9.2,4.8l-1.2-2.3l1.4-0.7C94.8,158.1,94.2,157.9,93.7,157.6z"/>
	</g>
	<g enable-background="new    ">
		<path fill="#6A47AF" d="M90,154.5c-0.2,0.4-0.4,0.7-0.8,0.8c-0.4,0.2-0.8,0.2-1.2,0s-0.7-0.5-0.8-0.9c-0.2-0.4-0.2-0.8,0-1.2
			c0.2-0.4,0.4-0.7,0.8-0.8c0.4-0.2,0.8-0.2,1.2,0c0.4,0.2,0.7,0.5,0.8,0.9S90.1,154.1,90,154.5z M90.6,151.6l9.5-4l1,2.4l-9.5,4
			L90.6,151.6z"/>
	</g>
	<g enable-background="new    ">
		<path fill="#6A47AF" d="M98.5,144c-0.1,0.7-0.3,1.4-0.7,1.9c-0.4,0.5-0.9,0.9-1.5,1.1l-0.8-2.5c0.4-0.2,0.6-0.4,0.8-0.8
			c0.2-0.4,0.2-0.8,0-1.3c-0.1-0.5-0.3-0.8-0.6-1c-0.3-0.2-0.6-0.3-0.9-0.2c-0.3,0.1-0.5,0.3-0.6,0.7c-0.1,0.4-0.1,1-0.1,1.7
			c0,0.8,0,1.5,0,2c0,0.5-0.2,1-0.5,1.5c-0.3,0.5-0.8,0.8-1.4,1c-0.5,0.2-1.1,0.2-1.6,0s-1-0.5-1.5-1c-0.4-0.5-0.8-1.2-1-2
			c-0.4-1.2-0.3-2.2,0-3.1s1.1-1.5,2-1.9l0.7,2.4c-0.4,0.2-0.6,0.4-0.8,0.8c-0.1,0.4-0.1,0.8,0,1.3c0.1,0.5,0.3,0.8,0.6,1
			c0.2,0.2,0.5,0.2,0.8,0.2c0.3-0.1,0.5-0.3,0.6-0.7c0.1-0.4,0.1-1,0.1-1.7c0-0.8,0-1.4,0-1.9c0-0.5,0.2-1,0.5-1.5
			c0.3-0.5,0.8-0.8,1.4-1c0.6-0.2,1.1-0.2,1.7,0c0.5,0.2,1,0.5,1.5,1s0.8,1.2,1,1.9C98.6,142.5,98.6,143.3,98.5,144z"/>
	</g>
	<g enable-background="new    ">
		<path fill="#6A47AF" d="M85.8,124.1c0.7-0.8,1.8-1.3,3.2-1.4l6-0.5l0.2,2.6l-5.7,0.5c-0.8,0.1-1.4,0.3-1.8,0.8
			c-0.4,0.4-0.6,1-0.5,1.7c0.1,0.7,0.3,1.3,0.8,1.6c0.5,0.4,1.1,0.5,1.9,0.5l5.7-0.5l0.2,2.6l-10.3,0.8l-0.2-2.6l1.3-0.1
			c-0.5-0.3-0.9-0.7-1.2-1.2c-0.3-0.5-0.5-1.1-0.5-1.7C84.8,125.9,85.1,124.9,85.8,124.1z"/>
	</g>
	<g enable-background="new    ">
		<path fill="#6A47AF" d="M85.6,113.3c0.4-0.6,0.8-1,1.3-1.3l-1.5-0.1l0.2-2.6l10.4,0.9c1,0.1,1.8,0.4,2.5,0.8
			c0.7,0.5,1.3,1.1,1.6,1.9c0.4,0.8,0.5,1.8,0.4,2.8c-0.1,1.5-0.6,2.6-1.3,3.5c-0.8,0.9-1.7,1.3-2.9,1.3l0.2-2.6
			c0.5-0.1,0.9-0.4,1.2-0.8c0.3-0.4,0.5-1,0.6-1.6c0.1-0.8-0.1-1.4-0.5-1.9c-0.4-0.5-1.1-0.8-2-0.9l-1.6-0.1
			c0.5,0.4,0.8,0.9,1.1,1.5c0.3,0.6,0.4,1.3,0.3,2.1c-0.1,0.9-0.4,1.6-0.9,2.3c-0.5,0.7-1.2,1.2-2,1.5c-0.8,0.3-1.8,0.5-2.8,0.4
			c-1-0.1-1.9-0.4-2.7-0.9c-0.8-0.5-1.3-1.1-1.7-1.9c-0.4-0.8-0.5-1.6-0.4-2.4C85.1,114.5,85.3,113.8,85.6,113.3z M88.9,112.5
			c-0.5,0.2-0.9,0.5-1.1,0.9c-0.3,0.4-0.4,0.8-0.5,1.3s0,0.9,0.2,1.4c0.2,0.4,0.5,0.8,0.9,1.1c0.4,0.3,1,0.5,1.6,0.5
			c0.6,0.1,1.2,0,1.7-0.2s0.9-0.5,1.2-0.9c0.3-0.4,0.4-0.8,0.5-1.3c0-0.5,0-0.9-0.2-1.4c-0.2-0.4-0.5-0.8-0.9-1.1
			c-0.4-0.3-1-0.5-1.6-0.5C90,112.3,89.4,112.3,88.9,112.5z"/>
	</g>
	<g enable-background="new    ">
		<path fill="#6A47AF" d="M88.9,96.1l10,2.7l-0.7,2.5l-1.3-0.3c0.3,0.4,0.6,1,0.7,1.5c0.1,0.6,0.1,1.2-0.1,1.8
			c-0.2,0.8-0.6,1.4-1,1.9c-0.5,0.5-1.1,0.9-1.8,1c-0.7,0.2-1.5,0.1-2.4-0.1l-5.9-1.6l0.7-2.5l5.5,1.5c0.8,0.2,1.5,0.2,2-0.1
			c0.5-0.3,0.9-0.8,1.1-1.5c0.2-0.7,0.1-1.3-0.2-1.8c-0.3-0.5-0.9-0.9-1.7-1.1l-5.5-1.5L88.9,96.1z"/>
	</g>
	<g enable-background="new    ">
		<path fill="#6A47AF" d="M94.2,83.6l11.3,12l-1.1,2.5l-3.8-4.1l-10.9-0.3l1.2-2.7l7.7,0.5L93,86.1L94.2,83.6z"/>
	</g>
	<g enable-background="new    ">
		<path fill="#6A47AF" d="M105.6,76.6l-4.1,6.3c0.7,0.4,1.3,0.4,1.9,0.3c0.6-0.2,1.1-0.5,1.5-1.1c0.5-0.8,0.5-1.6,0.1-2.4l1.5-2.4
			c0.7,0.8,1.1,1.7,1.1,2.8c0.1,1.1-0.2,2.1-0.9,3.1c-0.5,0.8-1.2,1.5-2,1.9c-0.8,0.4-1.7,0.6-2.6,0.5c-0.9-0.1-1.8-0.4-2.7-1
			c-0.9-0.6-1.6-1.3-2-2.1c-0.4-0.8-0.6-1.7-0.6-2.5c0.1-0.9,0.4-1.8,0.9-2.6c0.5-0.8,1.2-1.5,2-1.9c0.8-0.4,1.6-0.6,2.5-0.5
			c0.9,0.1,1.8,0.4,2.6,0.9C105.1,76.2,105.4,76.4,105.6,76.6z M102.7,77.9c-0.6-0.4-1.2-0.4-1.7-0.3c-0.6,0.2-1.1,0.6-1.4,1.1
			c-0.4,0.5-0.5,1.1-0.4,1.7c0.1,0.6,0.4,1.1,0.9,1.6L102.7,77.9z"/>
	</g>
	<g enable-background="new    ">
		<path fill="#6A47AF" d="M109.1,65.2c1.1,0,2.1,0.4,3.2,1.3l4.5,4.1l-1.7,1.9l-4.2-3.8c-0.6-0.5-1.2-0.8-1.8-0.8
			c-0.6,0-1.1,0.3-1.6,0.8c-0.5,0.5-0.7,1.1-0.7,1.7c0,0.6,0.4,1.2,1,1.7l4.2,3.8l-1.7,1.9l-7.7-6.9l1.7-1.9l1,0.9
			c-0.1-0.6-0.1-1.1,0.1-1.7s0.5-1.1,0.9-1.6C107.1,65.7,108,65.2,109.1,65.2z"/>
	</g>
	<g enable-background="new    ">
		<path fill="#6A47AF" d="M123,55.4l2.7,4.2c0.2,0.3,0.4,0.5,0.6,0.5c0.2,0,0.5-0.1,0.8-0.3l1-0.7l1.2,1.8l-1.4,0.9
			c-1.8,1.2-3.3,0.9-4.5-0.9l-2.7-4.2l-1,0.7l-1.2-1.8l1-0.7l-1.4-2.1l2.2-1.4l1.4,2.1l1.9-1.3l1.2,1.8L123,55.4z"/>
	</g>
	<g enable-background="new    ">
		<path fill="#6A47AF" d="M129.7,49.5c0.3-0.5,0.8-1,1.4-1.3l1.3,2.4l-0.6,0.3c-0.7,0.4-1.2,0.8-1.4,1.4c-0.2,0.5-0.1,1.2,0.4,2.1
			l2.4,4.6l-2.3,1.2l-4.8-9.1l2.3-1.2l0.7,1.4C129.1,50.7,129.3,50.1,129.7,49.5z"/>
	</g>
	<g enable-background="new    ">
		<path fill="#6A47AF" d="M132.8,45.8c-0.4-0.2-0.7-0.4-0.8-0.8c-0.2-0.4-0.2-0.8,0-1.2c0.2-0.4,0.5-0.7,0.9-0.8s0.8-0.2,1.2,0
			c0.4,0.2,0.7,0.4,0.8,0.8c0.2,0.4,0.2,0.8,0,1.2c-0.2,0.4-0.5,0.7-0.9,0.8C133.6,46,133.2,46,132.8,45.8z M135.7,46.4l4,9.5
			l-2.4,1l-4-9.5L135.7,46.4z"/>
	</g>
	<g enable-background="new    ">
		<path fill="#6A47AF" d="M143.3,54.4c-0.7-0.1-1.4-0.3-1.9-0.7c-0.5-0.4-0.9-0.9-1.1-1.5l2.5-0.8c0.2,0.4,0.4,0.6,0.8,0.8
			c0.4,0.2,0.8,0.2,1.3,0c0.5-0.1,0.8-0.3,1-0.6c0.2-0.3,0.3-0.6,0.2-0.9c-0.1-0.3-0.3-0.5-0.7-0.6s-0.9-0.1-1.7-0.1
			c-0.8,0-1.5,0-2,0c-0.5,0-1-0.2-1.5-0.5s-0.8-0.8-1-1.4c-0.2-0.5-0.2-1.1,0-1.6c0.2-0.5,0.5-1,1-1.5c0.5-0.4,1.2-0.8,2-1
			c1.2-0.4,2.2-0.3,3.1,0c0.9,0.4,1.5,1.1,1.9,2l-2.4,0.7c-0.2-0.4-0.4-0.6-0.8-0.8s-0.8-0.1-1.3,0c-0.5,0.1-0.8,0.3-1,0.6
			c-0.2,0.2-0.2,0.5-0.2,0.8c0.1,0.3,0.3,0.5,0.7,0.6c0.4,0.1,1,0.1,1.7,0.1c0.8,0,1.4,0,1.9,0c0.5,0.1,1,0.2,1.5,0.5
			c0.5,0.3,0.8,0.8,1,1.4c0.2,0.6,0.2,1.1,0,1.7c-0.2,0.5-0.5,1-1,1.5c-0.5,0.4-1.2,0.8-1.9,1C144.8,54.4,144,54.5,143.3,54.4z"/>
	</g>
	<g enable-background="new    ">
		<path fill="#6A47AF" d="M163.2,41.6c0.8,0.7,1.3,1.8,1.4,3.2l0.5,6l-2.6,0.2l-0.5-5.7c-0.1-0.8-0.3-1.4-0.8-1.8
			c-0.4-0.4-1-0.6-1.7-0.5c-0.7,0.1-1.3,0.3-1.6,0.8c-0.4,0.5-0.5,1.1-0.5,1.9l0.5,5.7l-2.6,0.2l-0.8-10.3l2.6-0.2l0.1,1.3
			c0.3-0.5,0.7-0.9,1.2-1.2c0.5-0.3,1.1-0.5,1.7-0.5C161.3,40.6,162.4,40.9,163.2,41.6z"/>
	</g>
	<g enable-background="new    ">
		<path fill="#6A47AF" d="M174,41.4c0.6,0.4,1,0.8,1.3,1.3l0.1-1.5l2.6,0.2l-0.9,10.4c-0.1,1-0.4,1.8-0.8,2.5
			c-0.5,0.7-1.1,1.3-1.9,1.6c-0.8,0.4-1.8,0.5-2.8,0.4c-1.5-0.1-2.6-0.6-3.5-1.3c-0.9-0.8-1.3-1.7-1.3-2.9l2.6,0.2
			c0.1,0.5,0.4,0.9,0.8,1.2c0.4,0.3,1,0.5,1.6,0.6c0.8,0.1,1.4-0.1,1.9-0.5c0.5-0.4,0.8-1.1,0.9-2l0.1-1.6c-0.4,0.5-0.9,0.8-1.5,1.1
			c-0.6,0.3-1.3,0.4-2.1,0.3c-0.9-0.1-1.6-0.4-2.3-0.9s-1.2-1.2-1.5-2c-0.3-0.8-0.5-1.8-0.4-2.8c0.1-1,0.4-1.9,0.9-2.7
			c0.5-0.8,1.1-1.3,1.9-1.7c0.8-0.4,1.6-0.5,2.4-0.4C172.7,40.8,173.4,41,174,41.4z M174.7,44.7c-0.2-0.5-0.5-0.8-0.9-1.1
			c-0.4-0.3-0.8-0.4-1.3-0.5c-0.5,0-0.9,0-1.4,0.2s-0.8,0.5-1.1,0.9c-0.3,0.4-0.5,1-0.5,1.6s0,1.2,0.2,1.7c0.2,0.5,0.5,0.9,0.9,1.2
			c0.4,0.3,0.8,0.4,1.3,0.5c0.5,0,0.9,0,1.4-0.2s0.8-0.5,1.1-1c0.3-0.4,0.5-1,0.5-1.6C175,45.7,174.9,45.2,174.7,44.7z"/>
	</g>
	<g enable-background="new    ">
		<path fill="#6A47AF" d="M191.2,44.6l-2.6,10l-2.5-0.7l0.3-1.3c-0.4,0.3-1,0.6-1.5,0.7c-0.6,0.1-1.2,0.1-1.8-0.1
			c-0.8-0.2-1.4-0.6-1.9-1s-0.9-1.1-1-1.8c-0.2-0.7-0.1-1.5,0.1-2.4l1.6-5.9l2.5,0.7l-1.5,5.5c-0.2,0.8-0.2,1.5,0.1,2
			c0.3,0.5,0.8,0.9,1.5,1.1c0.7,0.2,1.3,0.1,1.8-0.2s0.9-0.9,1.1-1.7l1.5-5.5L191.2,44.6z"/>
	</g>
	<g enable-background="new    ">
		<path fill="#6A47AF" d="M203.7,49.8l-12,11.3l-2.5-1.1l4.1-3.8l0.3-10.9l2.7,1.2l-0.5,7.7l5.4-5.5L203.7,49.8z"/>
	</g>
	<g enable-background="new    ">
		<path fill="#6A47AF" d="M210.6,61.3l-6.3-4.1c-0.4,0.7-0.4,1.3-0.3,1.9c0.2,0.6,0.5,1.1,1.1,1.5c0.8,0.5,1.6,0.5,2.4,0.1l2.4,1.5
			c-0.8,0.7-1.7,1.1-2.8,1.1c-1.1,0.1-2.1-0.2-3.1-0.9c-0.8-0.5-1.5-1.2-1.9-2c-0.4-0.8-0.6-1.7-0.5-2.6s0.4-1.8,1-2.7
			c0.6-0.9,1.3-1.6,2.1-2c0.8-0.4,1.7-0.6,2.5-0.6s1.8,0.4,2.6,0.9c0.8,0.5,1.5,1.2,1.9,2c0.4,0.8,0.6,1.6,0.5,2.5
			c-0.1,0.9-0.4,1.8-0.9,2.6C211,60.9,210.8,61.1,210.6,61.3z M209.4,58.5c0.4-0.6,0.4-1.2,0.3-1.7c-0.2-0.6-0.6-1.1-1.1-1.4
			c-0.5-0.4-1.1-0.5-1.7-0.4s-1.1,0.4-1.6,0.9L209.4,58.5z"/>
	</g>
	<g enable-background="new    ">
		<path fill="#6A47AF" d="M222.1,64.8c0,1.1-0.4,2.1-1.3,3.2l-4,4.5l-1.9-1.7l3.8-4.2c0.5-0.6,0.8-1.2,0.8-1.8
			c0-0.6-0.3-1.1-0.8-1.6c-0.5-0.5-1.1-0.7-1.7-0.6c-0.6,0-1.2,0.4-1.7,1l-3.8,4.2l-1.9-1.7l6.9-7.7l1.9,1.7l-0.9,1
			c0.6-0.1,1.1-0.1,1.7,0.1c0.6,0.2,1.1,0.5,1.6,0.9C221.6,62.7,222.1,63.7,222.1,64.8z"/>
	</g>
	<g enable-background="new    ">
		<path fill="#6A47AF" d="M231.9,78.7l-4.2,2.8c-0.3,0.2-0.5,0.4-0.5,0.6c0,0.2,0.1,0.5,0.3,0.8l0.7,1l-1.8,1.2l-0.9-1.4
			c-1.2-1.8-0.9-3.3,0.9-4.5l4.2-2.7l-0.7-1l1.8-1.2l0.7,1l2.1-1.4l1.4,2.2l-2.1,1.4l1.3,1.9l-1.8,1.2L231.9,78.7z"/>
	</g>
	<g enable-background="new    ">
		<path fill="#6A47AF" d="M237.8,85.3c0.5,0.3,1,0.8,1.3,1.4l-2.4,1.3l-0.3-0.6c-0.4-0.7-0.8-1.2-1.4-1.4c-0.5-0.2-1.2-0.1-2.1,0.4
			l-4.6,2.4l-1.2-2.3l9.1-4.8l1.2,2.3l-1.4,0.7C236.7,84.8,237.2,85,237.8,85.3z"/>
	</g>
	<g enable-background="new    ">
		<path fill="#6A47AF" d="M240.9,91.4l-9.5,4l-1-2.4l9.5-4L240.9,91.4z M241.5,88.5c0.2-0.4,0.4-0.7,0.8-0.8c0.4-0.2,0.8-0.2,1.2,0
			c0.4,0.2,0.7,0.5,0.8,0.9s0.2,0.8,0,1.2c-0.2,0.4-0.4,0.7-0.8,0.8s-0.8,0.2-1.2,0c-0.4-0.2-0.7-0.5-0.8-0.9
			C241.3,89.3,241.3,88.9,241.5,88.5z"/>
	</g>
	<g enable-background="new    ">
		<path fill="#6A47AF" d="M232.9,99c0.1-0.7,0.3-1.4,0.7-1.9c0.4-0.5,0.9-0.9,1.5-1.1l0.8,2.5c-0.4,0.2-0.6,0.4-0.8,0.8
			c-0.2,0.4-0.2,0.8,0,1.3c0.1,0.5,0.4,0.8,0.6,1c0.3,0.2,0.6,0.3,0.9,0.2c0.3-0.1,0.5-0.3,0.6-0.7c0.1-0.4,0.1-0.9,0.1-1.7
			c0-0.8,0-1.5,0-2c0-0.5,0.2-1,0.5-1.5c0.3-0.5,0.8-0.8,1.4-1c0.5-0.2,1.1-0.2,1.6,0c0.5,0.2,1,0.5,1.5,1c0.4,0.5,0.8,1.2,1,2
			c0.4,1.2,0.3,2.2,0,3.1c-0.4,0.9-1.1,1.5-2,1.9l-0.7-2.4c0.4-0.2,0.6-0.4,0.8-0.8c0.1-0.4,0.1-0.8,0-1.3c-0.1-0.5-0.3-0.8-0.6-1
			s-0.5-0.2-0.8-0.2c-0.3,0.1-0.5,0.3-0.6,0.7c-0.1,0.4-0.1,1-0.1,1.7c0,0.8,0,1.4,0,1.9c0,0.5-0.2,1-0.5,1.5
			c-0.3,0.5-0.8,0.8-1.4,1c-0.6,0.2-1.1,0.2-1.7,0c-0.5-0.2-1-0.5-1.5-1c-0.4-0.5-0.8-1.2-1-1.9C232.9,100.5,232.9,99.7,232.9,99z"
			/>
	</g>
	<g enable-background="new    ">
		<path fill="#6A47AF" d="M245.7,118.9c-0.7,0.8-1.8,1.3-3.1,1.4l-6,0.5l-0.2-2.6l5.7-0.5c0.8-0.1,1.4-0.3,1.8-0.8
			c0.4-0.4,0.6-1,0.5-1.7c-0.1-0.7-0.3-1.3-0.8-1.6c-0.5-0.4-1.1-0.5-1.9-0.5l-5.7,0.5l-0.2-2.6l10.3-0.9l0.2,2.6l-1.3,0.1
			c0.5,0.3,0.9,0.7,1.2,1.2c0.3,0.5,0.5,1.1,0.5,1.7C246.7,117,246.4,118,245.7,118.9z"/>
	</g>
	<g enable-background="new    ">
		<path fill="#6A47AF" d="M246.1,129.6c-0.4,0.6-0.8,1-1.3,1.3l1.5,0.1l-0.2,2.6l-10.4-0.9c-1-0.1-1.8-0.3-2.5-0.8
			c-0.7-0.4-1.3-1.1-1.6-1.9c-0.4-0.8-0.5-1.8-0.4-2.8c0.1-1.5,0.6-2.6,1.3-3.5c0.8-0.9,1.7-1.3,2.9-1.3l-0.2,2.6
			c-0.5,0.1-0.9,0.4-1.2,0.8c-0.3,0.4-0.5,1-0.6,1.6c-0.1,0.8,0.1,1.4,0.5,1.9c0.4,0.5,1.1,0.8,2,0.9l1.6,0.1
			c-0.5-0.4-0.8-0.9-1.1-1.5c-0.3-0.6-0.4-1.3-0.3-2.1c0.1-0.9,0.4-1.6,0.9-2.3c0.5-0.7,1.2-1.2,2-1.5c0.8-0.3,1.8-0.5,2.8-0.4
			c1,0.1,1.9,0.4,2.7,0.9c0.8,0.5,1.3,1.1,1.7,1.9c0.4,0.7,0.5,1.6,0.4,2.4C246.6,128.4,246.4,129,246.1,129.6z M242.7,130.3
			c0.5-0.2,0.8-0.5,1.1-0.9c0.3-0.4,0.4-0.8,0.5-1.3c0-0.5,0-0.9-0.2-1.4c-0.2-0.4-0.5-0.8-0.9-1.1c-0.4-0.3-1-0.5-1.6-0.5
			c-0.6-0.1-1.2,0-1.7,0.2c-0.5,0.2-0.9,0.5-1.2,0.9c-0.3,0.4-0.4,0.8-0.5,1.3c0,0.5,0,0.9,0.2,1.4c0.2,0.4,0.5,0.8,1,1.1
			c0.4,0.3,1,0.5,1.6,0.5C241.7,130.6,242.3,130.5,242.7,130.3z"/>
	</g>
	<g enable-background="new    ">
		<path fill="#6A47AF" d="M242.9,146.8l-10-2.6l0.7-2.5l1.3,0.3c-0.3-0.4-0.6-1-0.7-1.5c-0.1-0.6-0.1-1.2,0.1-1.8
			c0.2-0.8,0.6-1.4,1-1.9c0.5-0.5,1.1-0.9,1.8-1c0.7-0.2,1.5-0.1,2.4,0.1l5.9,1.5l-0.7,2.5l-5.5-1.4c-0.8-0.2-1.5-0.2-2,0.1
			c-0.5,0.3-0.9,0.8-1.1,1.5c-0.2,0.7-0.1,1.3,0.2,1.8c0.3,0.5,0.9,0.9,1.7,1.1l5.5,1.4L242.9,146.8z"/>
	</g>
	<g enable-background="new    ">
		<path fill="#6A47AF" d="M237.6,159.3l-11.3-12l1.1-2.5l3.8,4.1l10.9,0.3l-1.2,2.7l-7.7-0.5l5.5,5.4L237.6,159.3z"/>
	</g>
	<g enable-background="new    ">
		<path fill="#6A47AF" d="M226.1,166.3l4.1-6.4c-0.7-0.4-1.3-0.4-1.9-0.3c-0.6,0.2-1.1,0.5-1.4,1.1c-0.5,0.8-0.5,1.6-0.1,2.4
			l-1.5,2.4c-0.7-0.8-1.1-1.7-1.1-2.8c-0.1-1.1,0.2-2.1,0.9-3.1c0.5-0.8,1.2-1.5,2-1.9c0.8-0.4,1.7-0.6,2.6-0.5
			c0.9,0.1,1.8,0.4,2.7,1c0.9,0.6,1.6,1.3,2,2.1c0.4,0.8,0.6,1.6,0.6,2.5c-0.1,0.9-0.4,1.8-0.9,2.6c-0.5,0.8-1.2,1.5-2,1.9
			s-1.6,0.6-2.5,0.6c-0.9-0.1-1.8-0.4-2.6-0.9C226.6,166.8,226.4,166.5,226.1,166.3z M229,165.1c0.6,0.4,1.2,0.4,1.8,0.3
			c0.6-0.2,1.1-0.6,1.4-1.1c0.3-0.5,0.5-1.1,0.4-1.7c-0.1-0.6-0.4-1.1-0.9-1.6L229,165.1z"/>
	</g>
	<g enable-background="new    ">
		<path fill="#6A47AF" d="M222.7,177.9c-1.1,0-2.1-0.4-3.2-1.3l-4.5-4l1.7-1.9l4.2,3.8c0.6,0.5,1.2,0.8,1.8,0.8
			c0.6,0,1.1-0.3,1.6-0.8c0.5-0.5,0.7-1.1,0.6-1.7c-0.1-0.6-0.4-1.2-1-1.7l-4.2-3.8l1.7-1.9l7.7,6.9l-1.7,1.9l-1-0.9
			c0.1,0.6,0.1,1.1-0.1,1.7c-0.2,0.6-0.5,1.1-0.9,1.6C224.7,177.3,223.8,177.8,222.7,177.9z"/>
	</g>
	<g enable-background="new    ">
		<path fill="#6A47AF" d="M208.8,187.6l-2.8-4.2c-0.2-0.3-0.4-0.5-0.6-0.5s-0.5,0.1-0.8,0.3l-1,0.7l-1.2-1.8l1.4-0.9
			c1.8-1.2,3.3-0.9,4.5,0.8l2.8,4.1l1-0.7l1.2,1.8l-1,0.7l1.4,2.1l-2.2,1.5l-1.4-2.1l-1.9,1.3l-1.2-1.8L208.8,187.6z"/>
	</g>
	<g enable-background="new    ">
		<path fill="#6A47AF" d="M202.2,193.6c-0.3,0.5-0.8,1-1.4,1.3l-1.3-2.4l0.6-0.3c0.7-0.4,1.2-0.8,1.4-1.4c0.2-0.5,0.1-1.2-0.4-2.1
			l-2.4-4.5l2.3-1.2l4.8,9.1l-2.3,1.2l-0.8-1.4C202.7,192.5,202.5,193.1,202.2,193.6z"/>
	</g>
	<g enable-background="new    ">
		<path fill="#6A47AF" d="M196.1,196.6l-4-9.5l2.4-1l4,9.5L196.1,196.6z M199,197.2c0.4,0.2,0.7,0.4,0.8,0.8c0.2,0.4,0.2,0.8,0,1.2
			c-0.2,0.4-0.5,0.7-0.9,0.8c-0.4,0.2-0.8,0.2-1.2,0c-0.4-0.2-0.7-0.4-0.8-0.8c-0.2-0.4-0.2-0.8,0-1.2c0.2-0.4,0.5-0.7,0.9-0.8
			C198.2,197.1,198.6,197,199,197.2z"/>
	</g>
	<g enable-background="new    ">
		<path fill="#6A47AF" d="M188.5,188.8c0.7,0.1,1.4,0.3,1.9,0.7c0.5,0.4,0.9,0.9,1.1,1.5l-2.5,0.8c-0.2-0.4-0.4-0.6-0.8-0.8
			c-0.4-0.2-0.8-0.2-1.3,0c-0.5,0.1-0.8,0.4-1,0.6c-0.2,0.3-0.3,0.6-0.2,0.9c0.1,0.3,0.3,0.5,0.7,0.6c0.4,0.1,0.9,0.1,1.7,0.1
			c0.8,0,1.5,0,2,0s1,0.2,1.5,0.5c0.5,0.3,0.8,0.8,1,1.4c0.2,0.5,0.2,1.1,0,1.6c-0.2,0.5-0.5,1-1,1.5c-0.5,0.4-1.2,0.8-2,1
			c-1.2,0.4-2.2,0.4-3.1,0c-0.9-0.4-1.5-1-1.9-2l2.4-0.7c0.2,0.4,0.4,0.6,0.8,0.8c0.4,0.1,0.8,0.1,1.3,0c0.5-0.1,0.8-0.3,1-0.6
			c0.2-0.2,0.2-0.5,0.2-0.8c-0.1-0.3-0.3-0.5-0.7-0.6c-0.4-0.1-1-0.1-1.7-0.1c-0.8,0-1.4,0-1.9,0c-0.5,0-1-0.2-1.5-0.5
			c-0.5-0.3-0.8-0.8-1-1.4c-0.2-0.6-0.2-1.1,0-1.7c0.2-0.5,0.5-1,1-1.5c0.5-0.4,1.2-0.8,1.9-1C187,188.7,187.8,188.7,188.5,188.8z"
			/>
	</g>
	<g enable-background="new    ">
		<path fill="#6A47AF" d="M168.7,201.5c-0.8-0.7-1.3-1.8-1.4-3.1l-0.5-6l2.6-0.2l0.5,5.7c0.1,0.8,0.3,1.4,0.8,1.8
			c0.4,0.4,1,0.6,1.7,0.5c0.7-0.1,1.3-0.3,1.6-0.8s0.5-1.1,0.5-1.9l-0.5-5.7l2.6-0.2l0.9,10.3l-2.6,0.2l-0.1-1.3
			c-0.3,0.5-0.7,0.9-1.2,1.2c-0.5,0.3-1.1,0.5-1.7,0.5C170.5,202.5,169.5,202.2,168.7,201.5z"/>
	</g>
	<g enable-background="new    ">
		<path fill="#6A47AF" d="M157.9,201.8c-0.6-0.4-1-0.8-1.3-1.3l-0.1,1.5l-2.6-0.2l0.9-10.4c0.1-1,0.3-1.8,0.8-2.5
			c0.4-0.7,1.1-1.3,1.9-1.6c0.8-0.4,1.8-0.5,2.8-0.4c1.5,0.1,2.6,0.6,3.5,1.3s1.3,1.7,1.4,2.9l-2.6-0.2c-0.1-0.5-0.4-0.9-0.8-1.2
			c-0.4-0.3-1-0.5-1.6-0.6c-0.8-0.1-1.4,0.1-1.9,0.5c-0.5,0.4-0.8,1.1-0.9,2l-0.1,1.6c0.4-0.5,0.9-0.8,1.5-1.1
			c0.6-0.3,1.3-0.4,2.1-0.3c0.9,0.1,1.6,0.4,2.3,0.9c0.7,0.5,1.2,1.2,1.5,2c0.3,0.8,0.5,1.8,0.4,2.8c-0.1,1-0.4,1.9-0.9,2.7
			c-0.5,0.8-1.1,1.3-1.8,1.7c-0.7,0.4-1.6,0.5-2.4,0.4C159.1,202.4,158.4,202.2,157.9,201.8z M157.2,198.5c0.2,0.5,0.5,0.8,0.9,1.1
			c0.4,0.3,0.8,0.4,1.3,0.5s0.9,0,1.4-0.2c0.4-0.2,0.8-0.5,1.1-0.9c0.3-0.4,0.5-1,0.5-1.6c0.1-0.6,0-1.2-0.2-1.7s-0.5-0.9-0.9-1.2
			c-0.4-0.3-0.8-0.4-1.3-0.5c-0.5,0-0.9,0-1.4,0.2c-0.4,0.2-0.8,0.5-1.1,1c-0.3,0.4-0.5,1-0.5,1.6
			C156.9,197.5,156.9,198,157.2,198.5z"/>
	</g>
	<g enable-background="new    ">
		<path fill="#6A47AF" d="M140.7,198.7l2.6-10l2.5,0.7l-0.3,1.3c0.4-0.3,1-0.6,1.5-0.7c0.6-0.1,1.2-0.1,1.8,0.1
			c0.8,0.2,1.4,0.6,1.9,1c0.5,0.5,0.9,1.1,1,1.8c0.2,0.7,0.1,1.5-0.1,2.4l-1.5,5.9l-2.5-0.7l1.4-5.5c0.2-0.8,0.2-1.5-0.1-2
			c-0.3-0.5-0.8-0.9-1.5-1.1c-0.7-0.2-1.3-0.1-1.8,0.2c-0.5,0.3-0.9,0.9-1.1,1.7l-1.4,5.5L140.7,198.7z"/>
	</g>
	<g enable-background="new    ">
		<path fill="#6A47AF" d="M128.2,193.4l12-11.3l2.5,1.1l-4.1,3.8l-0.3,10.9l-2.7-1.2l0.5-7.7l-5.4,5.5L128.2,193.4z"/>
	</g>
	<g enable-background="new    ">
		<path fill="#6A47AF" d="M121.1,182l6.4,4.1c0.3-0.7,0.4-1.3,0.3-1.9c-0.2-0.6-0.5-1.1-1.1-1.4c-0.8-0.5-1.6-0.5-2.4-0.1l-2.4-1.5
			c0.8-0.7,1.7-1.1,2.8-1.1c1.1-0.1,2.1,0.2,3.1,0.9c0.8,0.5,1.5,1.2,1.9,2s0.6,1.7,0.5,2.6c-0.1,0.9-0.4,1.8-0.9,2.7
			c-0.6,0.9-1.3,1.6-2.1,2c-0.8,0.4-1.6,0.6-2.5,0.6s-1.8-0.4-2.6-0.9c-0.8-0.5-1.5-1.2-1.9-2c-0.4-0.8-0.6-1.6-0.6-2.5
			c0.1-0.9,0.4-1.8,0.9-2.6C120.7,182.5,120.9,182.2,121.1,182z M122.3,184.9c-0.4,0.6-0.4,1.2-0.3,1.8s0.6,1.1,1.1,1.4
			c0.5,0.3,1.1,0.5,1.7,0.4c0.6-0.1,1.1-0.4,1.6-0.9L122.3,184.9z"/>
	</g>
	<g enable-background="new    ">
		<path fill="#6A47AF" d="M109.6,178.5c0-1.1,0.4-2.1,1.3-3.2l4-4.5l1.9,1.7l-3.8,4.3c-0.5,0.6-0.8,1.2-0.8,1.8
			c0,0.6,0.3,1.1,0.8,1.6c0.5,0.5,1.1,0.7,1.7,0.6c0.6-0.1,1.2-0.4,1.7-1l3.8-4.3l1.9,1.7l-6.9,7.7l-1.9-1.7l0.9-1
			c-0.6,0.1-1.1,0.1-1.7-0.1c-0.6-0.2-1.1-0.5-1.6-0.9C110.2,180.6,109.7,179.6,109.6,178.5z"/>
	</g>
	<circle fill="none" cx="165.8" cy="121.6" r="102.7"/>
	<g enable-background="new    ">
		<path fill="#6A47AF" d="M69.4,183.6l6.1-4c0.4-0.3,0.7-0.6,0.7-0.9s-0.1-0.7-0.4-1.2l-1-1.5l2.7-1.8l1.3,2
			c1.8,2.7,1.3,4.9-1.3,6.6l-6.1,4l1,1.5l-2.6,1.7l-1-1.5l-3.1,2l-2.1-3.2l3.1-2l-1.8-2.8l2.6-1.7L69.4,183.6z"/>
	</g>
	<g enable-background="new    ">
		<path fill="#6A47AF" d="M60.9,173.9c-0.8-0.5-1.4-1.2-1.8-2.1l3.5-1.8l0.5,0.9c0.6,1.1,1.2,1.7,2,2c0.8,0.3,1.8,0.1,3-0.5l6.6-3.5
			l1.8,3.4l-13.3,6.9l-1.8-3.4l2.1-1.1C62.5,174.7,61.7,174.4,60.9,173.9z"/>
	</g>
	<g enable-background="new    ">
		<path fill="#6A47AF" d="M55.6,169.3c-0.2,0.6-0.6,1-1.2,1.2c-0.6,0.2-1.2,0.2-1.7,0c-0.6-0.2-1-0.7-1.2-1.3s-0.3-1.2-0.1-1.8
			c0.2-0.6,0.6-1,1.2-1.2c0.6-0.2,1.2-0.2,1.7,0c0.6,0.2,1,0.7,1.2,1.3C55.8,168.1,55.8,168.7,55.6,169.3z M56.4,165.1l13.9-5.8
			l1.5,3.5l-13.9,5.8L56.4,165.1z"/>
	</g>
	<g enable-background="new    ">
		<path fill="#6A47AF" d="M67.9,154.1c-0.1,1.1-0.5,2-1.1,2.7c-0.6,0.8-1.3,1.3-2.1,1.6l-1.1-3.7c0.5-0.2,0.9-0.6,1.1-1.2
			c0.2-0.6,0.2-1.2,0-1.9c-0.2-0.7-0.5-1.2-0.9-1.5c-0.4-0.3-0.8-0.4-1.2-0.3c-0.5,0.1-0.7,0.5-0.8,1s-0.1,1.4-0.1,2.5
			c0.1,1.2,0.1,2.1,0,2.9c-0.1,0.8-0.3,1.5-0.7,2.1c-0.4,0.7-1.1,1.1-2.1,1.4c-0.8,0.2-1.6,0.2-2.4,0c-0.8-0.3-1.5-0.8-2.1-1.5
			c-0.6-0.7-1.1-1.7-1.5-2.9c-0.5-1.7-0.5-3.2,0.1-4.5c0.6-1.3,1.5-2.2,3-2.7l1,3.5c-0.6,0.2-0.9,0.6-1.2,1.1
			c-0.2,0.5-0.2,1.1,0,1.9c0.2,0.7,0.5,1.1,0.8,1.4c0.3,0.3,0.7,0.4,1.2,0.2c0.5-0.1,0.8-0.5,0.9-1.1c0.1-0.6,0.1-1.4,0.1-2.5
			c-0.1-1.1,0-2.1,0-2.8c0.1-0.8,0.3-1.5,0.8-2.1c0.4-0.7,1.1-1.2,2.1-1.5c0.8-0.2,1.6-0.2,2.4,0c0.8,0.3,1.5,0.8,2.1,1.5
			c0.6,0.7,1.1,1.7,1.5,2.8C68,151.9,68.1,153,67.9,154.1z"/>
	</g>
	<g enable-background="new    ">
		<path fill="#6A47AF" d="M49.5,125.1c1-1.2,2.6-1.9,4.6-2l8.8-0.7l0.3,3.8l-8.3,0.7c-1.2,0.1-2.1,0.5-2.7,1.1
			c-0.6,0.6-0.8,1.5-0.8,2.5c0.1,1,0.5,1.8,1.2,2.4c0.7,0.6,1.6,0.8,2.8,0.7l8.3-0.7l0.3,3.8l-15,1.2l-0.3-3.8l1.9-0.1
			c-0.7-0.5-1.2-1.1-1.7-1.8c-0.4-0.8-0.7-1.6-0.8-2.5C48,127.8,48.5,126.3,49.5,125.1z"/>
	</g>
	<g enable-background="new    ">
		<path fill="#6A47AF" d="M49.1,109.5c0.5-0.8,1.2-1.4,1.9-1.8l-2.1-0.2l0.3-3.8l15.1,1.4c1.4,0.1,2.6,0.5,3.6,1.2
			c1,0.7,1.8,1.6,2.4,2.7c0.5,1.2,0.7,2.6,0.6,4.1c-0.2,2.1-0.8,3.8-2,5.1s-2.5,1.9-4.3,1.9l0.3-3.8c0.7-0.1,1.3-0.5,1.7-1.1
			c0.5-0.6,0.7-1.4,0.8-2.3c0.1-1.1-0.1-2-0.7-2.8c-0.6-0.7-1.6-1.2-2.9-1.3l-2.3-0.2c0.7,0.5,1.2,1.3,1.6,2.2s0.5,1.9,0.4,3
			c-0.1,1.3-0.5,2.4-1.3,3.4s-1.7,1.7-3,2.2c-1.2,0.5-2.6,0.7-4.1,0.5c-1.5-0.1-2.8-0.6-3.9-1.3c-1.1-0.7-1.9-1.6-2.5-2.7
			c-0.5-1.1-0.7-2.3-0.6-3.6C48.3,111.3,48.6,110.3,49.1,109.5z M53.9,108.5c-0.7,0.3-1.2,0.7-1.6,1.3c-0.4,0.6-0.6,1.2-0.7,1.9
			c-0.1,0.7,0,1.4,0.3,2c0.3,0.6,0.7,1.2,1.4,1.6c0.6,0.4,1.4,0.7,2.3,0.8c0.9,0.1,1.7,0,2.4-0.3c0.7-0.3,1.3-0.7,1.7-1.3
			s0.7-1.2,0.7-1.9c0.1-0.7-0.1-1.4-0.3-2c-0.3-0.6-0.8-1.2-1.4-1.6c-0.6-0.4-1.4-0.7-2.3-0.8S54.6,108.2,53.9,108.5z"/>
	</g>
	<g enable-background="new    ">
		<path fill="#6A47AF" d="M53.9,84.4l14.5,3.9l-1,3.7l-1.8-0.5c0.5,0.6,0.8,1.4,1,2.2c0.2,0.9,0.1,1.7-0.1,2.6
			c-0.3,1.1-0.8,2.1-1.5,2.8c-0.7,0.7-1.6,1.2-2.7,1.5c-1.1,0.2-2.2,0.2-3.5-0.1l-8.5-2.3l1-3.7l8,2.1c1.2,0.3,2.1,0.3,2.9-0.2
			c0.8-0.4,1.3-1.1,1.6-2.1c0.3-1,0.2-1.9-0.3-2.6c-0.5-0.7-1.3-1.3-2.4-1.6l-8-2.1L53.9,84.4z"/>
	</g>
	<g enable-background="new    ">
		<path fill="#6A47AF" d="M61.6,66.3L78,83.8l-1.6,3.7l-5.5-6L55,81l1.7-3.9l11.2,0.7L60,70L61.6,66.3z"/>
	</g>
	<g enable-background="new    ">
		<path fill="#6A47AF" d="M78.2,56.2l-6,9.2c1,0.5,1.9,0.7,2.8,0.4c0.9-0.2,1.6-0.8,2.1-1.6c0.8-1.2,0.8-2.4,0.1-3.5l2.2-3.4
			c1,1.1,1.5,2.5,1.6,4c0.1,1.5-0.3,3.1-1.3,4.6C79,67.1,78,68,76.9,68.6c-1.2,0.6-2.4,0.9-3.7,0.8c-1.3-0.1-2.6-0.6-3.9-1.4
			c-1.3-0.8-2.3-1.8-2.9-3c-0.6-1.2-0.9-2.4-0.8-3.7c0.1-1.3,0.5-2.6,1.3-3.8c0.8-1.2,1.7-2.1,2.9-2.7c1.1-0.6,2.3-0.9,3.6-0.8
			c1.3,0.1,2.5,0.5,3.8,1.3C77.5,55.6,77.9,55.9,78.2,56.2z M74,58c-0.8-0.5-1.7-0.6-2.5-0.4c-0.9,0.3-1.6,0.8-2.1,1.6
			c-0.5,0.8-0.7,1.6-0.6,2.5c0.1,0.8,0.6,1.6,1.4,2.3L74,58z"/>
	</g>
	<g enable-background="new    ">
		<path fill="#6A47AF" d="M83.4,39.4c1.6-0.1,3.1,0.6,4.6,2l6.5,5.9L92,50.1l-6.2-5.6c-0.9-0.8-1.8-1.2-2.6-1.2
			c-0.9,0-1.7,0.4-2.4,1.2c-0.7,0.8-1,1.6-1,2.5c0.1,0.9,0.5,1.7,1.4,2.5l6.2,5.6L85,57.9L73.8,47.8l2.5-2.8l1.4,1.3
			c-0.1-0.8-0.1-1.6,0.2-2.5c0.3-0.8,0.7-1.6,1.3-2.3C80.4,40.1,81.8,39.4,83.4,39.4z"/>
	</g>
	<g enable-background="new    ">
		<path fill="#6A47AF" d="M103.7,25.3l4,6.1c0.3,0.4,0.6,0.7,0.9,0.7c0.3,0.1,0.7-0.1,1.2-0.4l1.5-1l1.8,2.7l-2,1.3
			c-2.7,1.8-4.9,1.3-6.6-1.3l-4-6l-1.5,1l-1.7-2.6l1.5-1l-2-3.1l3.2-2.1l2,3.1l2.8-1.8l1.7,2.6L103.7,25.3z"/>
	</g>
	<g enable-background="new    ">
		<path fill="#6A47AF" d="M113.3,16.7c0.5-0.8,1.2-1.4,2.1-1.8l1.8,3.5l-0.9,0.5c-1.1,0.6-1.7,1.2-2,2c-0.3,0.8-0.1,1.8,0.5,3
			l3.5,6.6l-3.4,1.8L108,18.9l3.4-1.8l1.1,2.1C112.6,18.3,112.8,17.5,113.3,16.7z"/>
	</g>
	<g enable-background="new    ">
		<path fill="#6A47AF" d="M118,11.4c-0.6-0.2-1-0.6-1.2-1.2c-0.2-0.6-0.2-1.2,0-1.7c0.2-0.6,0.7-1,1.3-1.2c0.6-0.3,1.2-0.3,1.8-0.1
			c0.6,0.2,1,0.6,1.2,1.2c0.2,0.6,0.2,1.2,0,1.7c-0.2,0.6-0.7,1-1.3,1.2C119.1,11.6,118.5,11.6,118,11.4z M122.2,12.2l5.8,13.9
			l-3.5,1.5l-5.8-13.9L122.2,12.2z"/>
	</g>
	<g enable-background="new    ">
		<path fill="#6A47AF" d="M133.2,23.7c-1.1-0.1-2-0.5-2.7-1.1c-0.8-0.6-1.3-1.3-1.6-2.1l3.7-1.1c0.2,0.5,0.6,0.9,1.2,1.1
			c0.6,0.2,1.2,0.2,1.9,0c0.7-0.2,1.2-0.5,1.5-0.9c0.3-0.4,0.4-0.8,0.3-1.2c-0.1-0.5-0.5-0.7-1-0.8c-0.5-0.1-1.4-0.1-2.5-0.1
			c-1.2,0.1-2.1,0.1-2.9,0c-0.8-0.1-1.5-0.3-2.1-0.7c-0.7-0.4-1.1-1.1-1.4-2.1c-0.2-0.8-0.2-1.6,0-2.4c0.3-0.8,0.8-1.5,1.5-2.2
			c0.7-0.6,1.7-1.1,2.9-1.5c1.7-0.5,3.2-0.5,4.5,0.1c1.3,0.5,2.2,1.5,2.7,3l-3.5,1c-0.2-0.6-0.6-0.9-1.1-1.1c-0.5-0.2-1.1-0.2-1.9,0
			c-0.7,0.2-1.1,0.5-1.4,0.8c-0.3,0.3-0.4,0.7-0.2,1.2c0.1,0.5,0.5,0.8,1.1,0.9c0.6,0.1,1.4,0.1,2.5,0.1c1.1-0.1,2.1,0,2.8,0
			c0.8,0.1,1.5,0.3,2.1,0.8s1.2,1.1,1.5,2.1c0.3,0.8,0.2,1.6,0,2.4s-0.8,1.5-1.5,2.1c-0.7,0.6-1.7,1.1-2.8,1.5
			C135.4,23.8,134.2,23.9,133.2,23.7z"/>
	</g>
	<g enable-background="new    ">
		<path fill="#6A47AF" d="M162.1,5.3c1.2,1,1.9,2.6,2,4.6l0.7,8.8l-3.8,0.3l-0.7-8.3c-0.1-1.2-0.5-2.1-1.1-2.7s-1.5-0.8-2.5-0.8
			c-1,0.1-1.8,0.5-2.4,1.2c-0.6,0.7-0.8,1.6-0.7,2.8l0.7,8.3l-3.8,0.3l-1.2-15l3.8-0.3l0.2,1.9c0.5-0.7,1.1-1.3,1.8-1.7
			c0.8-0.4,1.6-0.7,2.5-0.8C159.4,3.8,160.9,4.3,162.1,5.3z"/>
	</g>
	<g enable-background="new    ">
		<path fill="#6A47AF" d="M177.9,4.9c0.8,0.5,1.4,1.1,1.8,1.9l0.2-2.1l3.8,0.3l-1.4,15.1c-0.1,1.4-0.5,2.6-1.2,3.6
			c-0.7,1-1.6,1.8-2.7,2.4c-1.2,0.5-2.6,0.7-4.1,0.6c-2.1-0.2-3.8-0.8-5.1-2c-1.3-1.1-1.9-2.5-1.9-4.3l3.8,0.3
			c0.1,0.7,0.5,1.3,1.1,1.8c0.6,0.5,1.4,0.7,2.3,0.8c1.1,0.1,2-0.1,2.8-0.7c0.7-0.6,1.2-1.6,1.3-2.9l0.2-2.3
			c-0.5,0.7-1.3,1.2-2.2,1.6c-0.9,0.4-1.9,0.5-3,0.4c-1.3-0.1-2.4-0.5-3.4-1.3c-1-0.7-1.7-1.7-2.2-3c-0.5-1.2-0.7-2.6-0.5-4.1
			c0.1-1.5,0.6-2.8,1.3-3.9c0.7-1.1,1.6-1.9,2.7-2.5c1.1-0.5,2.3-0.7,3.6-0.6C176.1,4.1,177.1,4.4,177.9,4.9z M178.9,9.8
			c-0.3-0.7-0.7-1.2-1.3-1.6c-0.6-0.4-1.2-0.6-1.9-0.7c-0.7-0.1-1.4,0-2,0.3c-0.6,0.3-1.2,0.7-1.6,1.4c-0.4,0.6-0.7,1.4-0.8,2.3
			c-0.1,0.9,0,1.7,0.3,2.4c0.3,0.7,0.7,1.3,1.3,1.7c0.6,0.4,1.2,0.7,1.9,0.7c0.7,0.1,1.4-0.1,2-0.3c0.6-0.3,1.2-0.8,1.6-1.4
			c0.4-0.6,0.7-1.4,0.8-2.3C179.4,11.3,179.2,10.4,178.9,9.8z"/>
	</g>
	<g enable-background="new    ">
		<path fill="#6A47AF" d="M202.8,9.7L199,24.2l-3.7-1l0.5-1.8c-0.6,0.5-1.4,0.8-2.2,1c-0.9,0.2-1.7,0.1-2.6-0.1
			c-1.1-0.3-2.1-0.8-2.8-1.5c-0.7-0.7-1.2-1.6-1.5-2.7c-0.3-1.1-0.2-2.2,0.1-3.5L189,6l3.7,1l-2.1,8c-0.3,1.2-0.3,2.1,0.2,2.9
			c0.4,0.8,1.1,1.3,2.1,1.6c1,0.3,1.9,0.2,2.6-0.3c0.7-0.5,1.3-1.3,1.6-2.4l2.1-8L202.8,9.7z"/>
	</g>
	<g enable-background="new    ">
		<path fill="#6A47AF" d="M221,17.4l-17.5,16.4l-3.7-1.6l6-5.5l0.5-15.8l3.9,1.7l-0.7,11.2l7.9-8L221,17.4z"/>
	</g>
	<g enable-background="new    ">
		<path fill="#6A47AF" d="M231.2,33.9l-9.2-5.9c-0.5,1-0.7,1.9-0.4,2.8c0.2,0.9,0.8,1.6,1.6,2.1c1.2,0.8,2.4,0.8,3.5,0.1l3.4,2.2
			c-1.1,1-2.5,1.5-4,1.6c-1.5,0.1-3.1-0.3-4.6-1.3c-1.2-0.8-2.1-1.8-2.8-2.9c-0.6-1.2-0.9-2.4-0.8-3.7c0.1-1.3,0.6-2.6,1.4-3.9
			c0.8-1.3,1.8-2.3,3-2.9c1.2-0.6,2.4-0.9,3.7-0.8c1.3,0.1,2.6,0.5,3.8,1.3c1.2,0.8,2.1,1.7,2.7,2.9c0.6,1.1,0.9,2.3,0.8,3.6
			c-0.1,1.3-0.5,2.5-1.3,3.8C231.8,33.2,231.5,33.6,231.2,33.9z M229.3,29.7c0.5-0.8,0.6-1.7,0.4-2.5c-0.3-0.9-0.8-1.6-1.6-2.1
			c-0.8-0.5-1.6-0.7-2.5-0.6c-0.8,0.1-1.6,0.6-2.3,1.4L229.3,29.7z"/>
	</g>
	<g enable-background="new    ">
		<path fill="#6A47AF" d="M247.9,39.1c0.1,1.6-0.6,3.1-1.9,4.6l-5.9,6.5l-2.8-2.5l5.6-6.2c0.8-0.9,1.2-1.8,1.2-2.6
			c0-0.9-0.4-1.7-1.2-2.3c-0.8-0.7-1.6-1-2.5-0.9c-0.9,0.1-1.7,0.5-2.5,1.4l-5.6,6.2l-2.8-2.5l10.1-11.2l2.8,2.5l-1.3,1.4
			c0.8-0.1,1.6-0.1,2.5,0.2c0.8,0.3,1.6,0.7,2.3,1.3C247.1,36.1,247.8,37.5,247.9,39.1z"/>
	</g>
	<g enable-background="new    ">
		<path fill="#6A47AF" d="M262.1,59.4l-6.1,4c-0.4,0.3-0.7,0.6-0.7,0.9s0.1,0.7,0.4,1.2l1,1.5l-2.7,1.8l-1.3-2
			c-1.8-2.7-1.3-4.9,1.3-6.6l6-4l-1-1.5l2.6-1.7l1,1.5l3.1-2l2.1,3.2l-3.1,2l1.8,2.8l-2.6,1.7L262.1,59.4z"/>
	</g>
	<g enable-background="new    ">
		<path fill="#6A47AF" d="M270.6,69.1c0.8,0.5,1.4,1.2,1.9,2.1l-3.5,1.8l-0.5-0.9c-0.6-1.1-1.2-1.7-2-2c-0.8-0.3-1.8-0.1-3,0.6
			l-6.6,3.5l-1.8-3.4l13.3-7l1.8,3.4l-2.1,1.1C269,68.3,269.9,68.6,270.6,69.1z"/>
	</g>
	<g enable-background="new    ">
		<path fill="#6A47AF" d="M275.1,77.9l-13.9,5.8l-1.5-3.5l13.9-5.8L275.1,77.9z M276,73.7c0.2-0.6,0.6-1,1.2-1.2
			c0.6-0.2,1.2-0.2,1.7,0c0.6,0.2,1,0.7,1.2,1.3c0.3,0.6,0.3,1.2,0.1,1.8c-0.2,0.6-0.6,1-1.2,1.2c-0.6,0.2-1.2,0.2-1.7,0
			c-0.6-0.2-1-0.7-1.2-1.3C275.8,74.9,275.7,74.3,276,73.7z"/>
	</g>
	<g enable-background="new    ">
		<path fill="#6A47AF" d="M263.6,88.9c0.1-1.1,0.5-2,1.1-2.7c0.6-0.8,1.3-1.3,2.1-1.6l1.1,3.7c-0.5,0.2-0.9,0.6-1.1,1.2
			c-0.2,0.6-0.2,1.2,0,1.9c0.2,0.7,0.5,1.2,0.9,1.5c0.4,0.3,0.8,0.4,1.2,0.3c0.5-0.1,0.7-0.5,0.8-1c0.1-0.5,0.1-1.4,0.1-2.5
			c-0.1-1.2-0.1-2.1,0-2.9c0.1-0.8,0.3-1.5,0.7-2.1c0.4-0.7,1.1-1.1,2.1-1.4c0.8-0.2,1.6-0.2,2.4,0s1.5,0.8,2.2,1.5s1.1,1.7,1.5,2.9
			c0.5,1.7,0.5,3.2-0.1,4.5c-0.5,1.3-1.5,2.2-3,2.7l-1-3.5c0.6-0.2,0.9-0.6,1.1-1.1s0.2-1.1,0-1.9c-0.2-0.7-0.5-1.1-0.8-1.4
			c-0.3-0.3-0.7-0.4-1.2-0.2c-0.5,0.1-0.8,0.5-0.9,1.1c-0.1,0.6-0.1,1.4-0.1,2.5c0.1,1.1,0,2.1,0,2.8c-0.1,0.8-0.3,1.5-0.8,2.1
			c-0.4,0.7-1.1,1.2-2.1,1.5c-0.8,0.3-1.6,0.2-2.4,0c-0.8-0.3-1.5-0.8-2.1-1.5c-0.6-0.7-1.1-1.7-1.5-2.8
			C263.6,91.1,263.5,90,263.6,88.9z"/>
	</g>
	<g enable-background="new    ">
		<path fill="#6A47AF" d="M282.1,117.8c-1,1.2-2.6,1.9-4.6,2l-8.8,0.7l-0.3-3.8l8.3-0.7c1.2-0.1,2.1-0.5,2.7-1.1
			c0.6-0.6,0.8-1.5,0.8-2.5c-0.1-1-0.5-1.8-1.2-2.4c-0.7-0.6-1.6-0.8-2.8-0.7l-8.3,0.7l-0.3-3.8l15-1.2l0.3,3.8L281,109
			c0.7,0.5,1.3,1.1,1.7,1.8c0.4,0.8,0.7,1.6,0.8,2.5C283.6,115.1,283.2,116.6,282.1,117.8z"/>
	</g>
	<g enable-background="new    ">
		<path fill="#6A47AF" d="M282.5,133.5c-0.5,0.8-1.1,1.4-1.9,1.8l2.1,0.2l-0.3,3.8l-15.1-1.3c-1.4-0.1-2.6-0.5-3.6-1.2
			c-1-0.7-1.8-1.6-2.4-2.7c-0.5-1.2-0.7-2.6-0.6-4.1c0.2-2.1,0.8-3.8,1.9-5.1c1.1-1.3,2.5-1.9,4.3-2l-0.3,3.8
			c-0.7,0.1-1.3,0.5-1.7,1.1c-0.5,0.6-0.7,1.4-0.8,2.3c-0.1,1.1,0.2,2,0.7,2.8c0.6,0.7,1.6,1.2,2.9,1.3l2.3,0.2
			c-0.7-0.5-1.2-1.3-1.6-2.2c-0.4-0.9-0.5-1.9-0.4-3c0.1-1.3,0.5-2.4,1.3-3.4c0.7-1,1.7-1.7,3-2.2c1.2-0.5,2.6-0.7,4.1-0.5
			c1.5,0.1,2.8,0.6,3.9,1.3c1.1,0.7,1.9,1.6,2.5,2.7c0.5,1.1,0.8,2.3,0.6,3.6C283.3,131.7,283,132.7,282.5,133.5z M277.6,134.6
			c0.7-0.3,1.2-0.7,1.6-1.3c0.4-0.6,0.6-1.2,0.7-1.9c0.1-0.7-0.1-1.4-0.3-2c-0.3-0.6-0.7-1.2-1.4-1.6c-0.6-0.4-1.4-0.7-2.3-0.8
			c-0.9-0.1-1.7,0-2.4,0.3c-0.7,0.3-1.3,0.7-1.7,1.3c-0.4,0.6-0.7,1.2-0.7,1.9c-0.1,0.7,0.1,1.4,0.4,2s0.8,1.2,1.4,1.6
			c0.6,0.4,1.4,0.7,2.3,0.7S276.9,134.9,277.6,134.6z"/>
	</g>
	<g enable-background="new    ">
		<path fill="#6A47AF" d="M277.8,158.5l-14.5-3.9l1-3.7l1.8,0.5c-0.5-0.6-0.8-1.4-1-2.2c-0.2-0.9-0.1-1.7,0.1-2.6
			c0.3-1.1,0.8-2.1,1.5-2.8c0.7-0.7,1.6-1.2,2.7-1.5c1.1-0.3,2.2-0.2,3.5,0.1l8.5,2.3l-1,3.7l-8-2.1c-1.2-0.3-2.1-0.3-2.9,0.2
			c-0.8,0.4-1.3,1.1-1.6,2.1c-0.3,1-0.2,1.9,0.3,2.6c0.5,0.7,1.3,1.3,2.4,1.6l8,2.1L277.8,158.5z"/>
	</g>
	<g enable-background="new    ">
		<path fill="#6A47AF" d="M270.1,176.7l-16.4-17.5l1.6-3.7l5.5,6l15.8,0.5l-1.7,3.9l-11.2-0.7l8,7.9L270.1,176.7z"/>
	</g>
	<g enable-background="new    ">
		<path fill="#6A47AF" d="M253.5,186.9l5.9-9.2c-1-0.5-1.9-0.7-2.8-0.4c-0.9,0.2-1.6,0.8-2.1,1.6c-0.8,1.2-0.8,2.4-0.1,3.5l-2.2,3.4
			c-1-1.1-1.5-2.5-1.6-4c-0.1-1.5,0.3-3.1,1.3-4.6c0.8-1.2,1.8-2.1,2.9-2.8c1.2-0.6,2.4-0.9,3.7-0.8c1.3,0.1,2.6,0.6,3.9,1.4
			c1.3,0.8,2.3,1.8,2.9,3s0.9,2.4,0.8,3.7c-0.1,1.3-0.5,2.6-1.3,3.8c-0.8,1.2-1.7,2.1-2.9,2.7c-1.1,0.6-2.3,0.9-3.6,0.8
			c-1.3-0.1-2.5-0.5-3.8-1.3C254.2,187.5,253.8,187.2,253.5,186.9z M257.7,185.1c0.8,0.5,1.7,0.6,2.5,0.4c0.9-0.3,1.6-0.8,2.1-1.6
			c0.5-0.8,0.7-1.6,0.6-2.5c-0.1-0.8-0.6-1.6-1.4-2.3L257.7,185.1z"/>
	</g>
	<g enable-background="new    ">
		<path fill="#6A47AF" d="M248.4,203.6c-1.6,0.1-3.1-0.6-4.6-1.9l-6.5-5.9l2.5-2.8l6.2,5.6c0.9,0.8,1.8,1.2,2.6,1.2
			c0.9,0,1.7-0.4,2.3-1.2c0.7-0.8,1-1.6,0.9-2.5c-0.1-0.9-0.5-1.7-1.4-2.5l-6.2-5.6l2.5-2.8l11.2,10.1l-2.5,2.8l-1.4-1.3
			c0.1,0.8,0.1,1.6-0.2,2.5c-0.3,0.8-0.7,1.6-1.3,2.3C251.3,202.8,249.9,203.5,248.4,203.6z"/>
	</g>
	<g enable-background="new    ">
		<path fill="#6A47AF" d="M228.1,217.8l-4-6.1c-0.3-0.4-0.6-0.7-0.9-0.7c-0.3-0.1-0.7,0.1-1.2,0.4l-1.5,1l-1.8-2.7l2-1.3
			c2.7-1.8,4.9-1.3,6.6,1.2l4,6l1.5-1l1.7,2.6l-1.5,1l2,3.1l-3.2,2.1l-2-3.1l-2.8,1.9l-1.7-2.6L228.1,217.8z"/>
	</g>
	<g enable-background="new    ">
		<path fill="#6A47AF" d="M218.5,226.4c-0.5,0.8-1.2,1.4-2.1,1.9l-1.8-3.5l0.9-0.5c1.1-0.6,1.7-1.2,2-2c0.3-0.8,0.1-1.8-0.6-3
			l-3.5-6.6l3.4-1.8l7,13.3l-3.4,1.8l-1.1-2.1C219.3,224.7,219,225.6,218.5,226.4z"/>
	</g>
	<g enable-background="new    ">
		<path fill="#6A47AF" d="M209.7,230.8l-5.8-13.9l3.5-1.5l5.8,13.9L209.7,230.8z M213.9,231.7c0.6,0.2,1,0.6,1.2,1.2
			c0.2,0.6,0.2,1.2,0,1.7c-0.2,0.6-0.7,1-1.3,1.2c-0.6,0.3-1.2,0.3-1.8,0.1c-0.6-0.2-1-0.6-1.2-1.2c-0.2-0.6-0.2-1.2,0-1.7
			s0.7-1,1.3-1.2C212.7,231.5,213.3,231.5,213.9,231.7z"/>
	</g>
	<g enable-background="new    ">
		<path fill="#6A47AF" d="M198.5,219.4c1.1,0.1,2,0.5,2.7,1.1c0.8,0.6,1.3,1.3,1.6,2.1l-3.7,1.1c-0.2-0.5-0.6-0.9-1.2-1.1
			c-0.6-0.2-1.2-0.2-1.9,0c-0.7,0.2-1.2,0.5-1.5,0.9c-0.3,0.4-0.4,0.8-0.3,1.2c0.1,0.5,0.5,0.7,1,0.8c0.5,0.1,1.4,0.1,2.5,0.1
			c1.2-0.1,2.1-0.1,2.9,0c0.8,0.1,1.5,0.3,2.1,0.7s1.1,1.1,1.4,2.1c0.2,0.8,0.2,1.6,0,2.4c-0.3,0.8-0.8,1.5-1.5,2.2
			s-1.7,1.1-2.9,1.5c-1.7,0.5-3.2,0.5-4.5,0c-1.3-0.5-2.2-1.5-2.7-3l3.5-1.1c0.2,0.6,0.6,0.9,1.1,1.1c0.5,0.2,1.1,0.2,1.9,0
			c0.7-0.2,1.1-0.5,1.4-0.8c0.3-0.3,0.4-0.7,0.2-1.2c-0.1-0.5-0.5-0.8-1.1-0.9c-0.6-0.1-1.4-0.1-2.5-0.1c-1.1,0.1-2.1,0-2.8,0
			c-0.8-0.1-1.5-0.3-2.1-0.8s-1.2-1.1-1.5-2.1c-0.3-0.8-0.2-1.6,0-2.4c0.3-0.8,0.8-1.5,1.5-2.1c0.7-0.6,1.7-1.1,2.8-1.5
			C196.3,219.4,197.5,219.3,198.5,219.4z"/>
	</g>
	<g enable-background="new    ">
		<path fill="#6A47AF" d="M169.7,237.9c-1.2-1-1.9-2.6-2-4.6l-0.7-8.8l3.8-0.3l0.7,8.3c0.1,1.2,0.5,2.1,1.1,2.7
			c0.6,0.6,1.5,0.8,2.5,0.8c1-0.1,1.8-0.5,2.4-1.2c0.6-0.7,0.8-1.6,0.7-2.8l-0.7-8.3l3.8-0.3l1.2,15l-3.8,0.3l-0.2-1.9
			c-0.5,0.7-1.1,1.3-1.8,1.7c-0.8,0.4-1.6,0.7-2.5,0.8C172.4,239.4,170.9,239,169.7,237.9z"/>
	</g>
	<g enable-background="new    ">
		<path fill="#6A47AF" d="M154,238.2c-0.8-0.5-1.4-1.1-1.8-1.9l-0.2,2.1l-3.8-0.3l1.3-15.1c0.1-1.4,0.5-2.6,1.2-3.6
			c0.7-1,1.6-1.8,2.7-2.4s2.6-0.7,4.1-0.6c2.1,0.2,3.8,0.8,5.1,1.9c1.3,1.1,1.9,2.5,2,4.3l-3.8-0.3c-0.1-0.7-0.5-1.3-1.1-1.7
			c-0.6-0.5-1.4-0.7-2.3-0.8c-1.1-0.1-2,0.2-2.8,0.7c-0.7,0.6-1.2,1.6-1.3,2.9l-0.2,2.3c0.5-0.7,1.3-1.2,2.2-1.6
			c0.9-0.4,1.9-0.5,3-0.4c1.3,0.1,2.4,0.5,3.4,1.3c1,0.7,1.7,1.7,2.2,3c0.5,1.2,0.7,2.6,0.5,4.1c-0.1,1.5-0.6,2.8-1.3,3.9
			c-0.7,1.1-1.6,1.9-2.7,2.5c-1.1,0.5-2.3,0.8-3.6,0.6C155.7,239.1,154.8,238.8,154,238.2z M152.9,233.4c0.3,0.7,0.7,1.2,1.3,1.6
			c0.6,0.4,1.2,0.6,1.9,0.7c0.7,0.1,1.4-0.1,2-0.3c0.6-0.3,1.2-0.7,1.6-1.4c0.4-0.6,0.7-1.4,0.8-2.3c0.1-0.9,0-1.7-0.3-2.4
			s-0.8-1.3-1.3-1.7c-0.6-0.4-1.2-0.7-1.9-0.7c-0.7-0.1-1.4,0.1-2,0.4c-0.6,0.3-1.2,0.8-1.6,1.4c-0.4,0.6-0.7,1.4-0.8,2.3
			C152.5,231.9,152.6,232.7,152.9,233.4z"/>
	</g>
	<g enable-background="new    ">
		<path fill="#6A47AF" d="M129,233.6l3.8-14.5l3.7,1l-0.5,1.8c0.6-0.5,1.4-0.8,2.2-1c0.9-0.2,1.7-0.1,2.6,0.1
			c1.1,0.3,2.1,0.8,2.8,1.5c0.7,0.7,1.2,1.6,1.5,2.7c0.3,1.1,0.2,2.2-0.1,3.5l-2.2,8.5l-3.7-1l2.1-8c0.3-1.2,0.2-2.1-0.2-2.9
			c-0.4-0.8-1.1-1.3-2.1-1.6c-1-0.3-1.9-0.2-2.6,0.3s-1.3,1.3-1.6,2.4l-2.1,8L129,233.6z"/>
	</g>
	<g enable-background="new    ">
		<path fill="#6A47AF" d="M110.7,225.9l17.5-16.4l3.7,1.6l-6,5.5l-0.4,15.8l-3.9-1.7l0.7-11.2l-7.9,8L110.7,225.9z"/>
	</g>
	<g enable-background="new    ">
		<path fill="#6A47AF" d="M100.6,209.3l9.2,5.9c0.5-1,0.6-1.9,0.4-2.8c-0.2-0.9-0.8-1.6-1.6-2.1c-1.2-0.8-2.4-0.8-3.5-0.1l-3.4-2.2
			c1.1-1,2.5-1.5,4-1.7c1.5-0.1,3.1,0.3,4.6,1.3c1.2,0.8,2.1,1.8,2.8,2.9c0.6,1.2,0.9,2.4,0.8,3.7c-0.1,1.3-0.6,2.7-1.4,3.9
			c-0.8,1.3-1.8,2.3-3,2.9c-1.2,0.6-2.4,0.9-3.7,0.8c-1.3-0.1-2.6-0.5-3.8-1.3c-1.2-0.8-2.1-1.7-2.7-2.8c-0.6-1.1-0.9-2.3-0.8-3.6
			c0.1-1.3,0.5-2.5,1.3-3.8C100,210,100.3,209.6,100.6,209.3z M102.4,213.5c-0.5,0.8-0.6,1.7-0.4,2.5s0.8,1.6,1.6,2.1
			c0.8,0.5,1.6,0.7,2.5,0.6c0.8-0.1,1.6-0.6,2.3-1.4L102.4,213.5z"/>
	</g>
	<g enable-background="new    ">
		<path fill="#6A47AF" d="M83.9,204.2c-0.1-1.6,0.6-3.1,1.9-4.6l5.9-6.6l2.8,2.5l-5.5,6.2c-0.8,0.9-1.2,1.8-1.2,2.6
			c0,0.9,0.4,1.7,1.2,2.3c0.8,0.7,1.6,1,2.5,0.9c0.9-0.1,1.7-0.6,2.5-1.4l5.5-6.2l2.8,2.5l-10,11.2l-2.8-2.5l1.3-1.4
			c-0.8,0.1-1.6,0.1-2.5-0.2s-1.6-0.7-2.3-1.3C84.6,207.2,83.9,205.8,83.9,204.2z"/>
	</g>
</g>
</svg>
