<?xml version="1.0" encoding="utf-8"?>
<!-- Generator: Adobe Illustrator 24.0.0, SVG Export Plug-In . SVG Version: 6.00 Build 0)  -->
<svg version="1.1" id="Layer_1" xmlns="http://www.w3.org/2000/svg" xmlns:xlink="http://www.w3.org/1999/xlink" x="0px" y="0px"
	 width="500px" height="500px" viewBox="0 0 500 500" style="enable-background:new 0 0 500 500;" xml:space="preserve">
<style type="text/css">
	.st0{fill:#2A2248;}
</style>
<g>
	<path class="st0" d="M210,158.1l4.5,0c11.3,0,20.5-9.2,20.5-20.5v-3.7c0-7.7-5.6-13.3-12.6-13.3c-9.6,0-22.4,0-30.2,0
		c-4,0-7.2,3.2-7.2,7.2v5.4C185,146.9,196.2,158.1,210,158.1z"/>
	<path class="st0" d="M286.1,158.1l4.5,0c13.8,0,25-11.2,25-25v-5.4c0-4-3.2-7.2-7.2-7.2c-7.9,0-20.7,0-30.2,0
		c-6.9,0-12.6,5.6-12.6,13.3v3.7C265.6,149,274.8,158.1,286.1,158.1z"/>
	<path class="st0" d="M397.5,10H103.2c-51.3,0-92.8,41.6-92.8,92.8v294.2c0,51.3,41.6,92.8,92.8,92.8h294.2
		c51.3,0,92.8-41.6,92.8-92.8V102.9C490.3,51.6,448.7,10,397.5,10z M150,107.6c0-5,4-9,9-9h-0.1c-4.9,0-9-4-9-9v-8.1c0-4.9,4-9,9-9
		h116.7c12.2,0,8.7,22.2,15,22.2s2.8-22.2,15-22.2h36.1c4.9,0,9,4,9,9v8.1c0,4.9-4,9-9,9h-0.1c5,0,9,4,9,9v47.5
		c0,16.8-13.6,30.4-30.4,30.4H180.3c-16.8,0-30.4-13.6-30.4-30.4V107.6z M355.7,326.9c-45.2,57.8-70.1,90-84.1,107.8
		c-4.5,5.7-13.6,2.5-13.6-4.7V325.8c0-3.1,1.9-5.9,4.8-7.1c11.8-4.9,20.1-16.5,20.1-30c0-18.7-15.9-33.7-34.8-32.4
		c-15.8,1.1-28.7,13.8-30,29.6c-1.2,14.7,7.4,27.6,19.9,32.8c2.9,1.2,4.8,4,4.8,7.1v103.8c0,7.3-9.2,10.4-13.6,4.7
		c-28.5-36.3-83.9-107.2-84.1-107.5c-2-2.5-2.2-6-0.5-8.7v0c20.1-33,32.9-70.7,36.3-110.8c0.3-4,3.6-7,7.6-7h124c4,0,7.3,3,7.6,7
		c3.3,38.3,15.2,76.3,36.3,110.8C357.8,320.9,357.6,324.4,355.7,326.9z"/>
</g>
</svg>
