<?xml version="1.0" encoding="utf-8"?>
<!-- Generator: Adobe Illustrator 24.0.0, SVG Export Plug-In . SVG Version: 6.00 Build 0)  -->
<svg version="1.1" id="Layer_1" xmlns="http://www.w3.org/2000/svg" xmlns:xlink="http://www.w3.org/1999/xlink" x="0px" y="0px"
	 width="500px" height="500px" viewBox="0 0 500 500" style="enable-background:new 0 0 500 500;" xml:space="preserve">
<style type="text/css">
	.st0{fill:#2A2248;}
	.st1{fill:#FFFFFF;}
</style>
<path class="st0" d="M397.5,490H103.2c-51.3,0-92.8-41.6-92.8-92.8V102.9c0-51.3,41.6-92.8,92.8-92.8h294.2
	c51.3,0,92.8,41.6,92.8,92.8v294.2C490.3,448.4,448.7,490,397.5,490z"/>
<path class="st1" d="M356.2,318.2c-21-34.5-33-72.5-36.3-110.8c-0.3-4-3.6-7-7.6-7h-124c-4,0-7.3,3.1-7.6,7
	c-3.4,40.1-16.2,77.8-36.3,110.8v0c-1.7,2.7-1.5,6.2,0.5,8.7c0.2,0.3,55.6,71.2,84.1,107.5c4.5,5.7,13.6,2.5,13.6-4.7V325.8
	c0-3.1-1.9-5.9-4.8-7.1c-12.6-5.2-21.2-18.1-19.9-32.8c1.3-15.8,14.2-28.5,30-29.6c19-1.3,34.8,13.7,34.8,32.4
	c0,13.5-8.3,25.1-20.1,30c-2.9,1.2-4.8,4-4.8,7.1v104.1c0,7.3,9.2,10.4,13.6,4.7c14-17.8,38.9-50,84.1-107.8
	C357.6,324.4,357.8,320.9,356.2,318.2z"/>
<path class="st1" d="M180.3,185.5h139.9c16.8,0,30.4-13.6,30.4-30.4v-47.5c0-5-4-9-9-9h0.1c4.9,0,9-4,9-9v-8.1c0-4.9-4-9-9-9h-36.1
	c-12.2,0-8.7,22.2-15,22.2s-2.8-22.2-15-22.2H158.9c-4.9,0-9,4-9,9v8.1c0,4.9,4,9,9,9h0.1c-5,0-9,4-9,9v47.5
	C150,171.9,163.6,185.5,180.3,185.5z M235,137.7c0,11.3-9.2,20.5-20.5,20.5l-4.5,0c-13.8,0-25-11.2-25-25v-5.4c0-4,3.2-7.2,7.2-7.2
	c7.9,0,20.7,0,30.2,0c6.9,0,12.6,5.6,12.6,13.3V137.7z M315.6,133.1c0,13.8-11.2,25-25,25l-4.5,0c-11.3,0-20.5-9.2-20.5-20.5v-3.7
	c0-7.7,5.6-13.3,12.6-13.3c9.6,0,22.4,0,30.2,0c4,0,7.2,3.2,7.2,7.2V133.1z"/>
</svg>
