<?xml version="1.0" encoding="utf-8"?>
<!-- Generator: Adobe Illustrator 24.0.0, SVG Export Plug-In . SVG Version: 6.00 Build 0)  -->
<svg version="1.1" id="Layer_1" xmlns="http://www.w3.org/2000/svg" xmlns:xlink="http://www.w3.org/1999/xlink" x="0px" y="0px"
	 width="178px" height="82px" viewBox="0 0 178 82" enable-background="new 0 0 178 82" xml:space="preserve">
<g>
	<path fill="#FFFFFF" d="M43.3,73c-3.1-4.1-1.7-30.1,3.1-57.8C59.2,11.5,69.4,9,73,9c0,0,0,0,0.1,0c0.7,0.6,1.5,0.9,2.5,0.9
		c2.1,0,3.8-1.7,3.8-3.8c0-1.4-0.7-2.7-1.9-3.6c-2-1.4-4.4-3.2-38.3,6.9c-15.9,4.7-31.4,9.9-31.6,10c-2,0.7-3,2.8-2.4,4.8
		c0.5,1.6,2,2.6,3.6,2.6c0.4,0,0.8-0.1,1.2-0.2c9.4-3.2,19.3-6.3,28.4-9.1c-2.6,16.2-7.6,52.2-0.7,60.5c1.3,1.6,3.1,2.5,5.1,2.5
		c2.1,0,3.8-1.7,3.8-3.8C46.6,74.8,45.2,73.2,43.3,73z"/>
	<path fill="#FFFFFF" d="M126.3,73c-4.4-0.5-8.4-2.4-13.1-4.5c-6.8-3.1-14.5-6.7-25.5-6.7c0,0,0,0-0.1,0c1.6-2.1,4.7-5.3,6.9-7.5
		c7.1-7.3,14.4-14.8,14.4-21.7c0-2.4-1.1-4.5-3.1-5.9c-6.3-4.5-24.1-0.5-37.4,3.5c-0.3-0.1-0.6-0.3-1-0.3c-1.5-0.2-3,0.5-3.7,1.8
		c-3.6,1.2-6.6,2.2-8.7,2.9c-2,0.7-3,2.9-2.3,4.8c0.7,2,2.9,3,4.8,2.3c1.6-0.6,3.1-1.1,4.7-1.6c-1.5,13.1-2.8,32.9,1.9,38.3
		c1.2,1.3,2.8,2.1,4.4,2.1c2.1,0,3.8-1.7,3.8-3.8c0-1.7-1.2-3.2-2.7-3.6c-1.8-3.5-1.5-18.9,0.6-35.5c15.2-4.5,28.4-6.7,31.1-4.8
		c-0.2,3.9-7.4,11.3-12.2,16.1c-7,7.1-11.6,11.9-9.7,16.5c1.6,3.9,6.6,3.9,8.2,3.9c9.3,0,15.9,3.1,22.3,6c5,2.3,9.7,4.5,15.3,5.2
		c0.2,0,0.3,0,0.5,0c1.9,0,3.5-1.4,3.7-3.3C129.8,75.1,128.3,73.2,126.3,73z"/>
	<path fill="#FFFFFF" d="M128.4,59.1c-0.6-4.1,0-18.1,0.9-30c0.2-2.1-1.4-3.9-3.5-4.1s-3.9,1.4-4.1,3.5c-2.7,33.4-0.4,35.1,1.4,36.3
		c0.7,0.5,1.6,0.8,2.4,0.8c0.6,0,1.1-0.1,1.7-0.4c1.9-0.8,2.8-3.1,2-5C129.1,59.9,128.8,59.5,128.4,59.1z"/>
	<path fill="#FFFFFF" d="M145.9,49.1c-1.3-0.4-1.8-0.9-1.9-1c-0.7-2.9,11.2-12.7,16-14.8h0.1c2.1,0,3.8-1.7,3.8-3.8
		c0-2-1.5-3.7-3.5-3.9c-4.3-0.4-21.9,12-23.7,20.5c-0.4,1.7-0.9,7.5,6.9,10.1c16,5.2,20.9,9.2,21.6,10.6c-0.3,0.3-1.2,1.2-3.8,2.2
		c-7.9,3.1-11.6,3.7-13.1,3.8l-0.1-0.1c-1.5-1.5-3.9-1.5-5.3,0c-1.4,1.4-1.6,3.6-0.5,5.2c1,1.6,2.9,2.4,5.6,2.4
		c3.7,0,9-1.4,16.2-4.3c5.9-2.3,8.8-5.5,8.7-9.3C172.7,62.9,169.8,56.8,145.9,49.1z"/>
</g>
</svg>
