<?xml version="1.0" encoding="utf-8"?>
<!-- Generator: Adobe Illustrator 24.0.0, SVG Export Plug-In . SVG Version: 6.00 Build 0)  -->
<svg version="1.1" id="Layer_1" xmlns="http://www.w3.org/2000/svg" xmlns:xlink="http://www.w3.org/1999/xlink" x="0px" y="0px"
	 width="168px" height="82px" viewBox="0 0 168 82" style="enable-background:new 0 0 168 82;" xml:space="preserve">
<style type="text/css">
	.st0{fill:#FFFFFF;}
</style>
<g>
	<path class="st0" d="M14.6,41.4c2.4-3.9,3.9-8.4,4.3-13.1c0-0.5,0.4-0.8,0.9-0.8h14.7c0.5,0,0.9,0.4,0.9,0.8
		c0.4,4.5,1.8,9,4.3,13.1c0.2,0.3,0.2,0.7-0.1,1c-5.4,6.8-8.3,10.7-10,12.8c-0.5,0.7-1.6,0.3-1.6-0.6V42.3c0-0.4,0.2-0.7,0.6-0.8
		c1.4-0.6,2.4-2,2.4-3.6c0-2.2-1.9-4-4.1-3.8c-1.9,0.1-3.4,1.6-3.6,3.5c-0.1,1.7,0.9,3.3,2.4,3.9c0.3,0.1,0.6,0.5,0.6,0.8v12.3
		c0,0.9-1.1,1.2-1.6,0.6c-3.4-4.3-9.9-12.7-10-12.7C14.4,42.1,14.4,41.7,14.6,41.4L14.6,41.4z"/>
	<path class="st0" d="M2.7,42.4h0.4C3.4,51.9,9.3,60.2,18,63.8H8.3C8,62.8,7,62,5.8,62c-1.5,0-2.7,1.2-2.7,2.7s1.2,2.7,2.7,2.7
		c1.2,0,2.2-0.8,2.6-1.8h13.8V67c0,1.5,1.2,2.7,2.7,2.7h4.5c1.5,0,2.7-1.2,2.7-2.7v-1.4H46c0.4,1.1,1.4,1.8,2.6,1.8
		c1.5,0,2.7-1.2,2.7-2.7S50,62,48.5,62c-1.2,0-2.2,0.8-2.6,1.8h-9.7c8.7-3.6,14.6-11.9,14.9-21.4h0.4c1.5,0,2.7-1.2,2.7-2.7v-2.5
		c0-1.5-1.2-2.7-2.7-2.7h-2.5c-1.5,0-2.7,1.2-2.7,2.7v2.5c0,1.5,1.2,2.7,2.7,2.7h0.3C49,52.5,41.9,61,32.1,63.3v-0.8
		c0-1.5-1.2-2.7-2.7-2.7h-4.5c-1.5,0-2.7,1.2-2.7,2.7v0.8C12.4,61,5.3,52.5,4.9,42.4h0.3c1.5,0,2.7-1.2,2.7-2.7v-2.5
		c0-1.5-1.2-2.7-2.7-2.7H2.7c-1.5,0-2.7,1.2-2.7,2.7v2.5C0,41.2,1.2,42.4,2.7,42.4z"/>
	<path class="st0" d="M38,15.4H16.3c-0.6,0-1.1,0.5-1.1,1.1v5.6c0,2,1.6,3.6,3.6,3.6h16.6c2,0,3.6-1.6,3.6-3.6v-5.6
		C39,15.9,38.6,15.4,38,15.4z M25.3,20c0,1.3-1.1,2.4-2.4,2.4l-0.5,0c-1.6,0-3-1.3-3-3v-0.6c0-0.5,0.4-0.8,0.8-0.8
		c0.9,0,2.4,0,3.6,0c0.8,0,1.5,0.7,1.5,1.6V20z M34.9,19.5c0,1.6-1.3,3-3,3l-0.5,0c-1.3,0-2.4-1.1-2.4-2.4v-0.4
		c0-0.9,0.7-1.6,1.5-1.6c1.1,0,2.6,0,3.6,0c0.5,0,0.8,0.4,0.8,0.8V19.5z"/>
	<path class="st0" d="M38,12.3h-4.3c-1.4,0-1,2.6-1.8,2.6c-0.7,0-0.3-2.6-1.8-2.6H16.3c-0.6,0-1.1,0.5-1.1,1.1v1
		c0,0.6,0.5,1.1,1.1,1.1h15.6h6c0.6,0,1.1-0.5,1.1-1.1v-1C39,12.8,38.6,12.3,38,12.3z"/>
	<g>
		<path class="st0" d="M79.1,14.1l-0.3,6.1c0,0.6-0.6,1.1-1.2,1c-0.2,0-0.4,0-0.6-0.1c-0.3,0-0.7,0-1.3-0.1c-0.6,0-1,0.4-1.1,1
			c-0.1,0.7-0.1,1.6-0.2,2.8c-0.1,1.8-0.2,4.3-0.4,7.6c0,0.6-0.5,1-1,1h-4.4c-0.6,0-1-0.4-1-1c-0.1-1.8-0.2-4.3-0.4-7.4
			c-0.1-1-0.1-1.9-0.2-2.9c0-0.6-0.5-1-1.1-1l-1.1,0c0,0,0,0-0.1,0l-0.8,0.1c-0.6,0.1-1.1-0.4-1.1-1l-0.2-6.2c0-0.6,0.4-1.1,1-1.1
			h14.3C78.7,13,79.2,13.5,79.1,14.1z"/>
		<path class="st0" d="M97.8,20.7c0,1.6-0.5,3.1-1.4,4.3c-0.6,0.8-1.2,1.4-2,1.9c-0.5,0.3-0.7,1-0.3,1.5c0.3,0.4,0.7,0.9,1.2,1.5
			c0.3,0.3,0.7,0.7,1.2,1.2c0.5,0.5,0.4,1.4-0.3,1.7c-0.4,0.2-0.8,0.3-1.3,0.5c-0.7,0.3-1.4,0.6-2,0.9c-0.5,0.2-1,0.1-1.3-0.3
			c-0.3-0.4-0.7-1-1.2-1.7c-0.4-0.7-1-1.8-1.8-3.4h0l-0.1,3.6c0,0.6-0.5,1-1,1h-5.5c-0.6,0-1-0.4-1-1c-0.1-2-0.2-4.8-0.4-8.6
			c-0.1-2.4-0.2-5.7-0.5-9.9c0-0.6,0.4-1,0.9-1.1c2-0.2,3.9-0.3,5.7-0.3C94.1,12.7,97.8,15.3,97.8,20.7z M91.8,23.6
			c0-0.8-0.4-1.4-1.1-1.8c-0.2-0.1-0.4-0.2-0.7-0.2c-0.6-0.1-1.3,0.3-1.3,1l0,2.2c0,0.7,0.7,1.2,1.4,1c0.2-0.1,0.4-0.2,0.5-0.3
			C91.4,25,91.8,24.4,91.8,23.6z"/>
		<path class="st0" d="M106.7,13c0.6,0,1.1,0.5,1,1.1l-0.5,9.8c-0.1,2.1-0.2,5-0.3,8.5c0,0.6-0.5,1-1,1h-5.4c-0.6,0-1-0.4-1-1
			l-0.8-18.3c0-0.6,0.4-1.1,1-1.1H106.7z"/>
		<path class="st0" d="M121.5,20.1c0,0.6-0.5,1.1-1.1,1.1c-0.1,0-0.2,0-0.3,0c-0.4,0-0.8,0.1-1.1,0.4c-0.4,0.3-0.6,0.8-0.6,1.3
			c0,0.4,0.4,1.2,1.1,2.5c0.8,1.2,1.1,2.3,1.1,3.3c0,1.5-0.6,2.7-1.7,3.6c-1.1,0.9-2.4,1.4-4,1.4c-1,0-1.8,0-2.5-0.1
			c-0.4-0.1-0.8-0.4-0.9-0.8c-0.1-0.4-0.2-0.8-0.3-1.3c0-0.1-0.1-0.2-0.1-0.4c-0.2-0.7,0.4-1.4,1.1-1.3c0.2,0,0.3,0,0.4,0
			c1.3,0,2-0.5,2-1.5c0-0.7-0.3-1.3-0.8-1.9c0,0-0.1-0.1-0.1-0.1c-0.9-0.7-1.7-1.5-2.6-2.3c-1.7-1.5-2.5-3.3-2.5-5.3
			c0-2.1,0.8-3.7,2.4-4.8c1.4-1,3.2-1.4,5.6-1.4c1.1,0,2.3,0.1,3.6,0.4c0.5,0.1,0.8,0.5,0.8,1L121.5,20.1z"/>
	</g>
	<g>
		<path class="st0" d="M77.8,45.7c0.6,0,1.1,0.5,1,1.1c-0.1,1.9-0.3,4.6-0.4,8.3c-0.1,2.7-0.2,5.8-0.3,9.2c0,0.9-1,1.3-1.7,0.8
			c-1-0.8-2.2-1.7-3.7-2.8c-0.7-0.5-1.7-1.2-3-2.1c-0.7-0.5-1.6,0-1.6,0.8l-0.1,4.1c0,0.6-0.5,1-1,1h-2.3c-0.6,0-1-0.4-1-1
			c-0.1-1.9-0.2-5-0.4-9.2c-0.2-3.5-0.4-6.5-0.6-9.1c0-0.6,0.4-1.1,1-1.1h5.1c0.3,0,0.5,0.1,0.7,0.3l2.8,2.7
			c0.7,0.6,1.8,0.1,1.7-0.8c0,0,0,0,0,0c0-0.3,0-0.6-0.1-1c0-0.6,0.4-1.1,1-1.1H77.8z"/>
		<path class="st0" d="M96.6,57.4c0.6,0,1.1,0.5,1,1.1c-0.1,0.8-0.2,1.8-0.3,3.1c-0.1,1.1-0.1,2.3-0.2,3.7c0,0.5-0.4,0.9-0.8,1
			c-1.1,0.2-2.6,0.3-4.4,0.3c-3.4,0-6.1-0.8-8.2-2.3c-2.5-1.8-3.7-4.5-3.7-8.1c0-3.4,1.1-6.1,3.3-8c2.1-1.8,4.8-2.7,8.1-2.7
			c1,0,2.1,0.1,3.2,0.2c0.5,0.1,0.9,0.5,0.9,0.9l0.5,6.1c0.1,0.7-0.5,1.2-1.1,1.1c-0.4,0-0.8-0.1-1.2-0.1c-1.4,0-2.6,0.4-3.7,1.3
			c-1.2,0.9-1.9,2.2-1.9,3.6c0,1.4,0.5,2.4,1.6,3.2c0.5,0.4,1.1,0.6,1.7,0.8c0.7,0.2,1.3-0.4,1.3-1.1l-0.1-1.4
			c0-0.4-0.1-0.9-0.2-1.5c-0.1-0.6,0.4-1.2,1-1.2H96.6z"/>
		<path class="st0" d="M115.4,45.7c0.6,0,1.1,0.5,1,1.1l-0.3,7.5c-0.1,2.3-0.1,5.8-0.1,10.4c0,0.4-0.3,0.9-0.7,1c-2,0.7-4.1,1-6.2,1
			c-2.9,0-5.1-0.6-6.6-1.7c-1.3-1-2.2-2.5-2.7-4.6c-0.3-1.2-0.6-3.4-0.9-6.6c-0.2-2.5-0.4-4.8-0.5-7c0-0.6,0.5-1.1,1-1.1h6.4
			c0.6,0,1.1,0.5,1,1.1c0,1.1-0.1,2.7-0.1,4.6c0,1.5,0,3.6,0,6.3c0,2.1,0.2,3.4,0.5,4.2c0.4,0.8,1.1,1.1,2.2,1.1c0,0,0,0,0,0
			c0.6,0,1-0.5,1-1c0-1.8-0.1-4.5-0.2-7.9c-0.1-1.8-0.2-4.2-0.4-7.2c0-0.6,0.4-1.1,1-1.1H115.4z"/>
		<path class="st0" d="M134.2,45.7c0.8,0,1.3,0.8,0.9,1.5l-1.7,3.1c-0.7,1.2-1.5,2.9-2.6,5.1c-0.1,0.1-0.1,0.2-0.1,0.4
			c-0.1,1.2-0.2,2.9-0.4,5.1c0,1-0.1,2.4-0.2,4.2c0,0.6-0.5,1-1,1h-4.8c-0.6,0-1-0.4-1-1c0-1.1-0.1-2.5-0.2-4.3
			c-0.1-0.9-0.2-2.6-0.5-5c0-0.1,0-0.2-0.1-0.4c-0.5-1-1.2-2.4-2.2-4.4c-0.5-1-1.2-2.2-2.1-3.8c-0.4-0.7,0.1-1.6,0.9-1.6h7.2
			c0.5,0,0.9,0.3,1,0.7c0.2,0.5,0.4,1.2,0.6,2l0.3,0.9c0.3,0.9,1.6,0.9,2,0c0.1-0.3,0.2-0.6,0.4-1c0.1-0.5,0.3-1.1,0.6-1.9
			c0.1-0.5,0.5-0.8,1-0.8H134.2z"/>
		<path class="st0" d="M150.5,46.8l-0.4,6.2c0,0.6-0.6,1-1.2,1c-0.3,0-0.6-0.1-1-0.1c-0.5,0-0.9-0.1-1.4-0.1c-0.6,0-1,0.4-1.1,1
			l0,0.4c0,0.6,0.4,1.1,1,1.1c0.6,0,1.4,0,2.3,0c0.7,0,1.2,0.6,1,1.3c0,0.2-0.1,0.3-0.1,0.5c-0.1,0.3-0.1,0.6-0.2,0.9
			c-0.1,0.5-0.6,0.9-1.1,0.9c-0.3,0-0.6-0.1-0.9-0.1c-0.3,0-0.7,0-1.1,0c-0.6,0-1,0.4-1,1l0,0.8c0,0.6,0.5,1.1,1.1,1.1
			c0.7,0,1.5-0.1,2.5-0.1c0,0,0.1,0,0.1,0c0.7-0.1,1.3,0.6,1.1,1.3c0,0.1-0.1,0.3-0.1,0.4c-0.1,0.3-0.2,0.8-0.3,1.2
			c-0.1,0.5-0.5,0.8-1,0.8h-10c-0.6,0-1-0.4-1-1l-0.3-9.4c-0.1-2.2-0.2-5.1-0.4-8.9c0-0.6,0.4-1.1,1-1.1h11.7
			C150.1,45.7,150.6,46.2,150.5,46.8z"/>
		<path class="st0" d="M167,45.7c0.6,0,1.1,0.5,1,1.1c-0.1,1.9-0.3,4.6-0.4,8.3c-0.1,2.7-0.2,5.8-0.3,9.2c0,0.9-1,1.3-1.7,0.8
			c-1-0.8-2.2-1.7-3.7-2.8c-0.7-0.5-1.7-1.2-3-2.1c-0.7-0.5-1.6,0-1.6,0.8l-0.1,4.1c0,0.6-0.5,1-1,1h-2.3c-0.6,0-1-0.4-1-1
			c-0.1-1.9-0.2-5-0.4-9.2c-0.2-3.5-0.4-6.5-0.6-9.1c0-0.6,0.4-1.1,1-1.1h5.1c0.3,0,0.5,0.1,0.7,0.3l2.8,2.7
			c0.7,0.6,1.8,0.1,1.7-0.8c0,0,0,0,0,0c0-0.3,0-0.6-0.1-1c0-0.6,0.4-1.1,1-1.1H167z"/>
	</g>
</g>
</svg>
