<?xml version="1.0" encoding="utf-8"?>
<!-- Generator: Adobe Illustrator 24.0.0, SVG Export Plug-In . SVG Version: 6.00 Build 0)  -->
<svg version="1.1" id="Layer_1" xmlns="http://www.w3.org/2000/svg" xmlns:xlink="http://www.w3.org/1999/xlink" x="0px" y="0px"
	 viewBox="0 0 22.7 22.7" style="enable-background:new 0 0 22.7 22.7;" xml:space="preserve">
<style type="text/css">
	.st0{fill:#FFFFFF;}
</style>
<g>
	<path class="st0" d="M4.8,15.3c1.2-2.1,2-4.4,2.3-6.9c0-0.2,0.2-0.4,0.5-0.4h7.7c0.2,0,0.5,0.2,0.5,0.4c0.2,2.4,0.9,4.7,2.3,6.9
		c0.1,0.2,0.1,0.4,0,0.5c-2.8,3.6-4.4,5.6-5.2,6.7c-0.3,0.4-0.8,0.2-0.8-0.3v-6.5c0-0.2,0.1-0.4,0.3-0.4c0.7-0.3,1.2-1,1.2-1.9
		c0-1.2-1-2.1-2.2-2c-1,0.1-1.8,0.9-1.9,1.8c-0.1,0.9,0.5,1.7,1.2,2c0.2,0.1,0.3,0.2,0.3,0.4v6.5c0,0.5-0.6,0.6-0.8,0.3
		c-1.8-2.3-5.2-6.7-5.2-6.7C4.7,15.7,4.7,15.4,4.8,15.3L4.8,15.3z"/>
	<path class="st0" d="M17,1.6H5.7c-0.3,0-0.6,0.3-0.6,0.6v3C5.1,6.2,6,7,7,7h8.7c1,0,1.9-0.8,1.9-1.9v-3C17.6,1.9,17.3,1.6,17,1.6z
		 M10.4,4c0,0.7-0.6,1.3-1.3,1.3l-0.3,0C8,5.3,7.3,4.6,7.3,3.8V3.4C7.3,3.2,7.5,3,7.7,3C8.2,3,9,3,9.6,3c0.4,0,0.8,0.3,0.8,0.8V4z
		 M15.4,3.8c0,0.9-0.7,1.6-1.6,1.6l-0.3,0c-0.7,0-1.3-0.6-1.3-1.3V3.8c0-0.5,0.3-0.8,0.8-0.8c0.6,0,1.4,0,1.9,0
		c0.2,0,0.4,0.2,0.4,0.4V3.8z"/>
	<path class="st0" d="M17,0h-2.2c-0.8,0-0.5,1.4-0.9,1.4S13.7,0,12.9,0H5.7C5.4,0,5.1,0.2,5.1,0.6v0.5c0,0.3,0.2,0.6,0.6,0.6h8.2H17
		c0.3,0,0.6-0.2,0.6-0.6V0.6C17.6,0.2,17.3,0,17,0z"/>
</g>
</svg>
