<?xml version="1.0" encoding="utf-8"?>
<!-- Generator: Adobe Illustrator 24.0.0, SVG Export Plug-In . SVG Version: 6.00 Build 0)  -->
<svg version="1.1" id="Layer_1" xmlns="http://www.w3.org/2000/svg" xmlns:xlink="http://www.w3.org/1999/xlink" x="0px" y="0px"
	 width="22.7px" height="22.7px" viewBox="0 0 22.7 22.7" enable-background="new 0 0 22.7 22.7" xml:space="preserve">
<path fill="#FFFFFF" d="M11.6,20.3c-0.9-1.1-0.5-8.4,0.9-16.1c3.6-1,6.4-1.7,7.4-1.7c0,0,0,0,0,0c0.2,0.2,0.4,0.3,0.7,0.3
	c0.6,0,1.1-0.5,1.1-1.1c0-0.4-0.2-0.8-0.5-1c-0.6-0.4-1.2-0.9-10.7,1.9C6.1,3.9,1.8,5.3,1.7,5.3C1.1,5.5,0.9,6.1,1,6.7
	c0.1,0.4,0.6,0.7,1,0.7c0.1,0,0.2,0,0.3-0.1C5,6.5,7.7,5.6,10.3,4.8c-0.7,4.5-2.1,14.5-0.2,16.8c0.4,0.4,0.9,0.7,1.4,0.7
	c0.6,0,1.1-0.5,1.1-1.1C12.6,20.8,12.2,20.3,11.6,20.3z"/>
</svg>
